G04*
G04 #@! TF.GenerationSoftware,Altium Limited,Altium NEXUS,1.1.6 (48)*
G04*
G04 Layer_Color=16711935*
%FSLAX44Y44*%
%MOMM*%
G71*
G01*
G75*
%ADD11C,0.2000*%
%ADD14C,0.2540*%
%ADD22C,0.1000*%
D11*
X-432750Y38330D02*
Y118830D01*
X-459050Y131080D02*
X-449053D01*
Y126082D01*
X-450719Y124416D01*
X-454052D01*
X-455718Y126082D01*
Y131080D01*
Y127748D02*
X-459050Y124416D01*
Y119417D02*
Y116085D01*
X-457384Y114419D01*
X-454052D01*
X-452385Y116085D01*
Y119417D01*
X-454052Y121083D01*
X-457384D01*
X-459050Y119417D01*
X-452385Y111086D02*
X-457384D01*
X-459050Y109420D01*
Y104422D01*
X-452385D01*
X-450719Y99424D02*
X-452385D01*
Y101090D01*
Y97757D01*
Y99424D01*
X-457384D01*
X-459050Y97757D01*
Y92759D02*
Y89427D01*
Y91093D01*
X-452385D01*
Y92759D01*
X-459050Y84428D02*
X-452385D01*
Y79430D01*
X-454052Y77764D01*
X-459050D01*
X-462382Y71099D02*
Y69433D01*
X-460716Y67767D01*
X-452385D01*
Y72765D01*
X-454052Y74432D01*
X-457384D01*
X-459050Y72765D01*
Y67767D01*
X-449053Y54438D02*
Y47773D01*
Y51106D01*
X-459050D01*
Y42775D02*
Y39443D01*
X-457384Y37777D01*
X-454052D01*
X-452385Y39443D01*
Y42775D01*
X-454052Y44441D01*
X-457384D01*
X-459050Y42775D01*
Y32778D02*
Y29446D01*
X-457384Y27780D01*
X-454052D01*
X-452385Y29446D01*
Y32778D01*
X-454052Y34444D01*
X-457384D01*
X-459050Y32778D01*
Y24448D02*
Y21116D01*
Y22782D01*
X-449053D01*
Y24448D01*
D14*
X-125000Y165000D02*
G03*
X-125000Y165000I-40000J0D01*
G01*
Y-165000D02*
G03*
X-125000Y-165000I-40000J0D01*
G01*
X205000D02*
G03*
X205000Y-165000I-40000J0D01*
G01*
Y165000D02*
G03*
X205000Y165000I-40000J0D01*
G01*
D22*
X-105850Y-382000D02*
G03*
X-105850Y-382000I-17250J0D01*
G01*
X-29650D02*
G03*
X-29650Y-382000I-17250J0D01*
G01*
X64150D02*
G03*
X64150Y-382000I-17250J0D01*
G01*
X140350D02*
G03*
X140350Y-382000I-17250J0D01*
G01*
X399250Y-123200D02*
G03*
X399250Y-123200I-17250J0D01*
G01*
Y-47000D02*
G03*
X399250Y-47000I-17250J0D01*
G01*
Y47000D02*
G03*
X399250Y47000I-17250J0D01*
G01*
Y123200D02*
G03*
X399250Y123200I-17250J0D01*
G01*
X140350Y382000D02*
G03*
X140350Y382000I-17250J0D01*
G01*
X64150D02*
G03*
X64150Y382000I-17250J0D01*
G01*
X-29650D02*
G03*
X-29650Y382000I-17250J0D01*
G01*
X-105850D02*
G03*
X-105850Y382000I-17250J0D01*
G01*
X-411274Y-226746D02*
G03*
X-408800Y-234119I333029J107627D01*
G01*
X-417742Y-204334D02*
G03*
X-415439Y-212918I382451J98005D01*
G01*
X-424305Y-173934D02*
G03*
X-421536Y-188108I428745J76384D01*
G01*
X-427819Y-150873D02*
G03*
X-426119Y-162974I481018J61405D01*
G01*
X-432800Y-5528D02*
G03*
X-432800Y-6639I30749822J-499D01*
G01*
Y6692D02*
G03*
X-432800Y5581I30212336J-664D01*
G01*
X-423067Y180539D02*
G03*
X-425768Y165222I448501J-86976D01*
G01*
X-409503Y232068D02*
G03*
X-411934Y224681I334476J-114175D01*
G01*
X-322116Y360846D02*
G03*
X-328092Y355870I162100J-200780D01*
G01*
X-308829Y370900D02*
G03*
X-319510Y362923I153201J-216281D01*
G01*
X-177931Y423566D02*
G03*
X-185563Y422070I77519J-415594D01*
G01*
X-163077Y416664D02*
G03*
X-173559Y424358I-8924J-1169D01*
G01*
X-163007Y416130D02*
G03*
X-153025Y408362I8924J1169D01*
G01*
X132163Y410778D02*
G03*
X122396Y411612I-49384J-520813D01*
G01*
X152854Y408388D02*
G03*
X163007Y416135I1229J8916D01*
G01*
X173607Y424374D02*
G03*
X163080Y416687I-1603J-8856D01*
G01*
X305908Y372932D02*
G03*
X295054Y380028I-155838J-226528D01*
G01*
X333129Y351434D02*
G03*
X328553Y355473I-172075J-190325D01*
G01*
X339259Y345704D02*
G03*
X333129Y351434I-176845J-183084D01*
G01*
X353746Y330537D02*
G03*
X349141Y335630I-191390J-168414D01*
G01*
X361115Y321783D02*
G03*
X355748Y328234I-203127J-163507D01*
G01*
X365348Y316378D02*
G03*
X361115Y321783I-204150J-155503D01*
G01*
X372304Y306816D02*
G03*
X368990Y311480I-223823J-155489D01*
G01*
X416665Y163077D02*
G03*
X424359Y173563I-1169J8924D01*
G01*
X416180Y163013D02*
G03*
X408397Y153161I1169J-8924D01*
G01*
X413800Y156D02*
G03*
X413800Y-457I8254558J-156D01*
G01*
X412533Y-107697D02*
G03*
X413028Y-95143I-570044J28785D01*
G01*
X408377Y-152847D02*
G03*
X410357Y-136419I-464565J64332D01*
G01*
X408377Y-152847D02*
G03*
X416122Y-163006I8915J-1235D01*
G01*
X424372Y-173599D02*
G03*
X416684Y-163079I-8857J1596D01*
G01*
X411341Y-226524D02*
G03*
X415207Y-213746I-349891J112819D01*
G01*
X378612Y-297311D02*
G03*
X385677Y-285538I-237179J150335D01*
G01*
X301766Y-375727D02*
G03*
X319093Y-363243I-146138J221094D01*
G01*
X246252Y-404311D02*
G03*
X252619Y-401741I-117741J300902D01*
G01*
X219939Y-413398D02*
G03*
X226492Y-411350I-101820J337427D01*
G01*
X181437Y-422890D02*
G03*
X190401Y-421032I-82268J419254D01*
G01*
X163077Y-416663D02*
G03*
X173563Y-424357I8924J1169D01*
G01*
X163008Y-416136D02*
G03*
X153051Y-408365I-8924J-1169D01*
G01*
X-152854Y-408378D02*
G03*
X-163006Y-416124I-1229J-8916D01*
G01*
X-173610Y-424375D02*
G03*
X-163080Y-416689I1607J8856D01*
G01*
X-232755Y-409268D02*
G03*
X-224315Y-412050I115052J334826D01*
G01*
X-276644Y-390516D02*
G03*
X-266701Y-395471I140523J269486D01*
G01*
X-330648Y-353648D02*
G03*
X-320421Y-362199I171402J194580D01*
G01*
X-334776Y-349931D02*
G03*
X-330648Y-353648I173451J188497D01*
G01*
X-338822Y-346125D02*
G03*
X-334776Y-349931I176708J183820D01*
G01*
X179928Y164285D02*
G03*
X179947Y165051I-15228J765D01*
G01*
X166783Y150162D02*
G03*
X179928Y164285I-1839J14891D01*
G01*
X165738Y150071D02*
G03*
X166783Y150162I-781J15067D01*
G01*
X164947Y150051D02*
G03*
X165738Y150071I1J15245D01*
G01*
X164182Y150070D02*
G03*
X164947Y150051I765J15228D01*
G01*
X150058Y163216D02*
G03*
X164182Y150070I14891J1839D01*
G01*
X149968Y164261D02*
G03*
X150058Y163216I15067J781D01*
G01*
X149947Y165051D02*
G03*
X149968Y164261I15244J-1D01*
G01*
X149967Y165817D02*
G03*
X149947Y165051I15228J-765D01*
G01*
X163112Y179940D02*
G03*
X149967Y165817I1839J-14891D01*
G01*
X164157Y180031D02*
G03*
X163112Y179940I781J-15067D01*
G01*
X164947Y180051D02*
G03*
X164157Y180031I-1J-15244D01*
G01*
X165713Y180032D02*
G03*
X164947Y180051I-765J-15228D01*
G01*
X179836Y166886D02*
G03*
X165713Y180032I-14891J-1839D01*
G01*
X179927Y165841D02*
G03*
X179836Y166886I-15067J-781D01*
G01*
X179947Y165051D02*
G03*
X179927Y165841I-15245J1D01*
G01*
X-150072Y164285D02*
G03*
X-150053Y165051I-15228J765D01*
G01*
X-163217Y150162D02*
G03*
X-150072Y164285I-1839J14891D01*
G01*
X-164262Y150071D02*
G03*
X-163217Y150162I-781J15067D01*
G01*
X-165053Y150051D02*
G03*
X-164262Y150071I1J15245D01*
G01*
X-165818Y150070D02*
G03*
X-165053Y150051I765J15228D01*
G01*
X-179942Y163216D02*
G03*
X-165818Y150070I14891J1839D01*
G01*
X-180032Y164261D02*
G03*
X-179942Y163216I15067J781D01*
G01*
X-180053Y165051D02*
G03*
X-180032Y164261I15244J-1D01*
G01*
X-180033Y165817D02*
G03*
X-180053Y165051I15228J-765D01*
G01*
X-166888Y179940D02*
G03*
X-180033Y165817I1839J-14891D01*
G01*
X-165843Y180031D02*
G03*
X-166888Y179940I781J-15067D01*
G01*
X-165053Y180051D02*
G03*
X-165843Y180031I-1J-15244D01*
G01*
X-164287Y180032D02*
G03*
X-165053Y180051I-765J-15228D01*
G01*
X-150164Y166886D02*
G03*
X-164287Y180032I-14891J-1839D01*
G01*
X-150073Y165841D02*
G03*
X-150164Y166886I-15067J-781D01*
G01*
X-150053Y165051D02*
G03*
X-150073Y165841I-15245J1D01*
G01*
X-249143Y264141D02*
G03*
X-249163Y264931I-15245J1D01*
G01*
X-249163Y264931D02*
G03*
X-249254Y265976I-15067J-781D01*
G01*
X-249254D02*
G03*
X-263377Y279122I-14891J-1839D01*
G01*
D02*
G03*
X-264143Y279141I-765J-15228D01*
G01*
X-264143D02*
G03*
X-264933Y279121I-1J-15244D01*
G01*
D02*
G03*
X-265978Y279030I781J-15067D01*
G01*
D02*
G03*
X-279123Y264907I1839J-14891D01*
G01*
X-279123D02*
G03*
X-279143Y264141I15228J-765D01*
G01*
D02*
G03*
X-279122Y263351I15244J-1D01*
G01*
Y263351D02*
G03*
X-279032Y262306I15067J781D01*
G01*
D02*
G03*
X-264908Y249160I14891J1839D01*
G01*
D02*
G03*
X-264143Y249141I765J15228D01*
G01*
D02*
G03*
X-263352Y249162I1J15245D01*
G01*
X-263352Y249162D02*
G03*
X-262307Y249252I-781J15067D01*
G01*
Y249252D02*
G03*
X-249162Y263375I-1839J14891D01*
G01*
X-249162D02*
G03*
X-249143Y264141I-15228J765D01*
G01*
X279140Y264140D02*
G03*
X279140Y264140I-15000J0D01*
G01*
X-249143Y-264319D02*
G03*
X-249163Y-263528I-15245J1D01*
G01*
X-249163Y-263528D02*
G03*
X-249254Y-262483I-15067J-781D01*
G01*
X-249254Y-262483D02*
G03*
X-263377Y-249338I-14891J-1839D01*
G01*
X-263377Y-249338D02*
G03*
X-264143Y-249319I-765J-15228D01*
G01*
X-264143D02*
G03*
X-264933Y-249339I-1J-15245D01*
G01*
Y-249339D02*
G03*
X-265978Y-249430I781J-15067D01*
G01*
X-265978Y-249430D02*
G03*
X-279123Y-263553I1839J-14891D01*
G01*
Y-263553D02*
G03*
X-279143Y-264319I15228J-765D01*
G01*
D02*
G03*
X-279122Y-265109I15244J-1D01*
G01*
D02*
G03*
X-279032Y-266154I15067J781D01*
G01*
X-279032Y-266154D02*
G03*
X-264908Y-279300I14891J1839D01*
G01*
X-264908D02*
G03*
X-264143Y-279319I765J15228D01*
G01*
D02*
G03*
X-263352Y-279298I1J15244D01*
G01*
X-263352D02*
G03*
X-262307Y-279208I-781J15067D01*
G01*
D02*
G03*
X-249162Y-265084I-1839J14891D01*
G01*
D02*
G03*
X-249143Y-264319I-15228J765D01*
G01*
X279137Y-264139D02*
G03*
X279117Y-263349I-15244J1D01*
G01*
D02*
G03*
X279026Y-262304I-15066J-781D01*
G01*
D02*
G03*
X264903Y-249158I-14891J-1839D01*
G01*
D02*
G03*
X264137Y-249139I-765J-15228D01*
G01*
Y-249139D02*
G03*
X263347Y-249159I-1J-15244D01*
G01*
X263347Y-249160D02*
G03*
X262302Y-249250I781J-15067D01*
G01*
D02*
G03*
X249157Y-263373I1839J-14891D01*
G01*
D02*
G03*
X249137Y-264139I15228J-765D01*
G01*
X249137Y-264139D02*
G03*
X249158Y-264929I15245J-1D01*
G01*
X249158D02*
G03*
X249249Y-265974I15067J781D01*
G01*
X249249Y-265974D02*
G03*
X263372Y-279120I14891J1839D01*
G01*
D02*
G03*
X264137Y-279139I765J15228D01*
G01*
X264137D02*
G03*
X264928Y-279118I1J15244D01*
G01*
D02*
G03*
X265973Y-279028I-781J15067D01*
G01*
X265973Y-279028D02*
G03*
X279118Y-264905I-1839J14891D01*
G01*
Y-264905D02*
G03*
X279137Y-264139I-15228J765D01*
G01*
X-150053Y-164949D02*
G03*
X-150073Y-164159I-15245J1D01*
G01*
X-150073Y-164159D02*
G03*
X-150164Y-163114I-15067J-781D01*
G01*
D02*
G03*
X-164287Y-149968I-14891J-1839D01*
G01*
X-166888Y-150060D02*
G03*
X-180033Y-164183I1839J-14891D01*
G01*
D02*
G03*
X-180053Y-164949I15228J-765D01*
G01*
D02*
G03*
X-180032Y-165739I15244J-1D01*
G01*
Y-165739D02*
G03*
X-179942Y-166784I15067J781D01*
G01*
D02*
G03*
X-165818Y-179930I14891J1839D01*
G01*
D02*
G03*
X-165053Y-179949I765J15228D01*
G01*
D02*
G03*
X-164262Y-179928I1J15245D01*
G01*
X-164262Y-179928D02*
G03*
X-163217Y-179838I-781J15067D01*
G01*
X-163217Y-179838D02*
G03*
X-150072Y-165715I-1839J14891D01*
G01*
X-150072D02*
G03*
X-150053Y-164949I-15228J765D01*
G01*
X-165843Y-149969D02*
G03*
X-166888Y-150060I781J-15067D01*
G01*
X-165053Y-149949D02*
G03*
X-165843Y-149969I-1J-15244D01*
G01*
X-164287Y-149968D02*
G03*
X-165053Y-149949I-765J-15228D01*
G01*
X179947Y-164949D02*
G03*
X179927Y-164159I-15245J1D01*
G01*
X179927Y-164159D02*
G03*
X179836Y-163114I-15067J-781D01*
G01*
D02*
G03*
X165713Y-149968I-14891J-1839D01*
G01*
D02*
G03*
X164947Y-149949I-765J-15228D01*
G01*
D02*
G03*
X164157Y-149969I-1J-15244D01*
G01*
X164157D02*
G03*
X163112Y-150060I781J-15067D01*
G01*
D02*
G03*
X149967Y-164183I1839J-14891D01*
G01*
D02*
G03*
X149947Y-164949I15228J-765D01*
G01*
D02*
G03*
X149968Y-165739I15244J-1D01*
G01*
Y-165739D02*
G03*
X150058Y-166784I15067J781D01*
G01*
D02*
G03*
X164182Y-179930I14891J1839D01*
G01*
D02*
G03*
X164947Y-179949I765J15228D01*
G01*
D02*
G03*
X165738Y-179928I1J15245D01*
G01*
X165738Y-179928D02*
G03*
X166783Y-179838I-781J15067D01*
G01*
X166783Y-179838D02*
G03*
X179928Y-165715I-1839J14891D01*
G01*
X179928D02*
G03*
X179947Y-164949I-15228J765D01*
G01*
X-369379Y-310943D02*
X-368726Y-311842D01*
X-370674Y-309138D02*
X-369379Y-310943D01*
X-371316Y-308231D02*
X-370674Y-309138D01*
X-371954Y-307322D02*
X-371316Y-308231D01*
X-372589Y-306410D02*
X-371954Y-307322D01*
X-373220Y-305496D02*
X-372589Y-306410D01*
X-373848Y-304579D02*
X-373220Y-305496D01*
X-374471Y-303659D02*
X-373848Y-304579D01*
X-375091Y-302737D02*
X-374471Y-303659D01*
X-376926Y-299955D02*
X-375091Y-302737D01*
X-378129Y-298087D02*
X-376926Y-299955D01*
X-379317Y-296209D02*
X-378129Y-298087D01*
X-380489Y-294322D02*
X-379317Y-296209D01*
X-381646Y-292425D02*
X-380489Y-294322D01*
X-382789Y-290519D02*
X-381646Y-292425D01*
X-383916Y-288604D02*
X-382789Y-290519D01*
X-385028Y-286681D02*
X-383916Y-288604D01*
X-386126Y-284749D02*
X-385028Y-286681D01*
X-387210Y-282809D02*
X-386126Y-284749D01*
X-388279Y-280861D02*
X-387210Y-282809D01*
X-389332Y-278905D02*
X-388279Y-280861D01*
X-390371Y-276940D02*
X-389332Y-278905D01*
X-391393Y-274968D02*
X-390371Y-276940D01*
X-391899Y-273978D02*
X-391393Y-274968D01*
X-392400Y-272987D02*
X-391899Y-273978D01*
X-392898Y-271994D02*
X-392400Y-272987D01*
X-393392Y-270998D02*
X-392898Y-271994D01*
X-393882Y-270002D02*
X-393392Y-270998D01*
X-394369Y-269003D02*
X-393882Y-270002D01*
X-394851Y-268002D02*
X-394369Y-269003D01*
X-395331Y-267000D02*
X-394851Y-268002D01*
X-395807Y-265996D02*
X-395331Y-267000D01*
X-397215Y-262975D02*
X-395807Y-265996D01*
X-397677Y-261965D02*
X-397215Y-262975D01*
X-398136Y-260953D02*
X-397677Y-261965D01*
X-398592Y-259940D02*
X-398136Y-260953D01*
X-399044Y-258925D02*
X-398592Y-259940D01*
X-399492Y-257908D02*
X-399044Y-258925D01*
X-399936Y-256890D02*
X-399492Y-257908D01*
X-400377Y-255870D02*
X-399936Y-256890D01*
X-401247Y-253826D02*
X-400377Y-255870D01*
X-401677Y-252801D02*
X-401247Y-253826D01*
X-402102Y-251775D02*
X-401677Y-252801D01*
X-402524Y-250747D02*
X-402102Y-251775D01*
X-402943Y-249718D02*
X-402524Y-250747D01*
X-403357Y-248687D02*
X-402943Y-249718D01*
X-403769Y-247655D02*
X-403357Y-248687D01*
X-404176Y-246622D02*
X-403769Y-247655D01*
X-404580Y-245587D02*
X-404176Y-246622D01*
X-405378Y-243513D02*
X-404580Y-245587D01*
X-406549Y-240393D02*
X-405378Y-243513D01*
X-407690Y-237261D02*
X-406549Y-240393D01*
X-408800Y-234119D02*
X-407690Y-237261D01*
X-411274Y-226746D02*
X-411274D01*
X-412614Y-222509D02*
X-411274Y-226746D01*
X-412941Y-221447D02*
X-412614Y-222509D01*
X-413264Y-220384D02*
X-412941Y-221447D01*
X-413584Y-219320D02*
X-413264Y-220384D01*
X-413901Y-218256D02*
X-413584Y-219320D01*
X-414215Y-217190D02*
X-413901Y-218256D01*
X-414526Y-216123D02*
X-414215Y-217190D01*
X-414833Y-215056D02*
X-414526Y-216123D01*
X-415137Y-213987D02*
X-414833Y-215056D01*
X-415439Y-212918D02*
X-415137Y-213987D01*
X-415439Y-212918D02*
Y-212918D01*
X-418820Y-200023D02*
X-417742Y-204334D01*
X-419082Y-198943D02*
X-418820Y-200023D01*
X-419341Y-197863D02*
X-419082Y-198943D01*
X-419596Y-196782D02*
X-419341Y-197863D01*
X-419849Y-195700D02*
X-419596Y-196782D01*
X-420099Y-194617D02*
X-419849Y-195700D01*
X-420346Y-193534D02*
X-420099Y-194617D01*
X-420589Y-192450D02*
X-420346Y-193534D01*
X-420830Y-191366D02*
X-420589Y-192450D01*
X-421068Y-190280D02*
X-420830Y-191366D01*
X-421304Y-189195D02*
X-421068Y-190280D01*
X-421536Y-188108D02*
X-421304Y-189195D01*
X-421536Y-188108D02*
X-421536Y-188108D01*
X-424689Y-171746D02*
X-424305Y-173934D01*
X-425062Y-169555D02*
X-424689Y-171746D01*
X-425425Y-167363D02*
X-425062Y-169555D01*
X-425777Y-165170D02*
X-425425Y-167363D01*
X-426119Y-162974D02*
X-425777Y-165170D01*
X-428230Y-147565D02*
X-427819Y-150873D01*
X-428362Y-146462D02*
X-428230Y-147565D01*
X-428492Y-145359D02*
X-428362Y-146462D01*
X-428619Y-144255D02*
X-428492Y-145359D01*
X-428743Y-143151D02*
X-428619Y-144255D01*
X-428866Y-142047D02*
X-428743Y-143151D01*
X-428985Y-140942D02*
X-428866Y-142047D01*
X-429103Y-139838D02*
X-428985Y-140942D01*
X-429219Y-138733D02*
X-429103Y-139838D01*
X-429332Y-137628D02*
X-429219Y-138733D01*
X-429443Y-136522D02*
X-429332Y-137628D01*
X-429552Y-135416D02*
X-429443Y-136522D01*
X-429763Y-133205D02*
X-429552Y-135416D01*
X-429965Y-130992D02*
X-429763Y-133205D01*
X-430159Y-128778D02*
X-429965Y-130992D01*
X-430343Y-126564D02*
X-430159Y-128778D01*
X-430519Y-124349D02*
X-430343Y-126564D01*
X-430685Y-122134D02*
X-430519Y-124349D01*
X-430841Y-119917D02*
X-430685Y-122134D01*
X-430916Y-118809D02*
X-430841Y-119917D01*
X-430989Y-117700D02*
X-430916Y-118809D01*
X-431059Y-116592D02*
X-430989Y-117700D01*
X-431127Y-115483D02*
X-431059Y-116592D01*
X-431194Y-114374D02*
X-431127Y-115483D01*
X-431258Y-113265D02*
X-431194Y-114374D01*
X-431320Y-112156D02*
X-431258Y-113265D01*
X-431381Y-111046D02*
X-431320Y-112156D01*
X-431440Y-109937D02*
X-431381Y-111046D01*
X-431498Y-108827D02*
X-431440Y-109937D01*
X-431554Y-107718D02*
X-431498Y-108827D01*
X-431608Y-106608D02*
X-431554Y-107718D01*
X-431713Y-104389D02*
X-431608Y-106608D01*
X-431764Y-103279D02*
X-431713Y-104389D01*
X-431813Y-102169D02*
X-431764Y-103279D01*
X-431860Y-101059D02*
X-431813Y-102169D01*
X-431905Y-99949D02*
X-431860Y-101059D01*
X-431948Y-98839D02*
X-431905Y-99949D01*
X-431989Y-97728D02*
X-431948Y-98839D01*
X-432028Y-96618D02*
X-431989Y-97728D01*
X-432064Y-95508D02*
X-432028Y-96618D01*
X-432097Y-94397D02*
X-432064Y-95508D01*
X-432128Y-93287D02*
X-432097Y-94397D01*
X-432156Y-92176D02*
X-432128Y-93287D01*
X-432181Y-91066D02*
X-432156Y-92176D01*
X-432203Y-89955D02*
X-432181Y-91066D01*
X-432222Y-88844D02*
X-432203Y-89955D01*
X-432238Y-87733D02*
X-432222Y-88844D01*
X-432253Y-86623D02*
X-432238Y-87733D01*
X-432267Y-85512D02*
X-432253Y-86623D01*
X-432280Y-84401D02*
X-432267Y-85512D01*
X-432293Y-83290D02*
X-432280Y-84401D01*
X-432307Y-82179D02*
X-432293Y-83290D01*
X-432321Y-81068D02*
X-432307Y-82179D01*
X-432337Y-79958D02*
X-432321Y-81068D01*
X-432353Y-78847D02*
X-432337Y-79958D01*
X-432371Y-77736D02*
X-432353Y-78847D01*
X-432388Y-76625D02*
X-432371Y-77736D01*
X-432406Y-75514D02*
X-432388Y-76625D01*
X-432424Y-74404D02*
X-432406Y-75514D01*
X-432441Y-73293D02*
X-432424Y-74404D01*
X-432458Y-72182D02*
X-432441Y-73293D01*
X-432473Y-71071D02*
X-432458Y-72182D01*
X-432488Y-69960D02*
X-432473Y-71071D01*
X-432502Y-68850D02*
X-432488Y-69960D01*
X-432516Y-67739D02*
X-432502Y-68850D01*
X-432529Y-66628D02*
X-432516Y-67739D01*
X-432541Y-65517D02*
X-432529Y-66628D01*
X-432553Y-64406D02*
X-432541Y-65517D01*
X-432565Y-63295D02*
X-432553Y-64406D01*
X-432577Y-62184D02*
X-432565Y-63295D01*
X-432589Y-61074D02*
X-432577Y-62184D01*
X-432600Y-59963D02*
X-432589Y-61074D01*
X-432611Y-58852D02*
X-432600Y-59963D01*
X-432622Y-57741D02*
X-432611Y-58852D01*
X-432632Y-56630D02*
X-432622Y-57741D01*
X-432642Y-55519D02*
X-432632Y-56630D01*
X-432652Y-54408D02*
X-432642Y-55519D01*
X-432661Y-53297D02*
X-432652Y-54408D01*
X-432669Y-52186D02*
X-432661Y-53297D01*
X-432678Y-51076D02*
X-432669Y-52186D01*
X-432686Y-49965D02*
X-432678Y-51076D01*
X-432693Y-48854D02*
X-432686Y-49965D01*
X-432700Y-47743D02*
X-432693Y-48854D01*
X-432707Y-46632D02*
X-432700Y-47743D01*
X-432714Y-45521D02*
X-432707Y-46632D01*
X-432720Y-44410D02*
X-432714Y-45521D01*
X-432725Y-43299D02*
X-432720Y-44410D01*
X-432731Y-42188D02*
X-432725Y-43299D01*
X-432736Y-41077D02*
X-432731Y-42188D01*
X-432741Y-39967D02*
X-432736Y-41077D01*
X-432745Y-38856D02*
X-432741Y-39967D01*
X-432749Y-37745D02*
X-432745Y-38856D01*
X-432753Y-36634D02*
X-432749Y-37745D01*
X-432757Y-35523D02*
X-432753Y-36634D01*
X-432761Y-34412D02*
X-432757Y-35523D01*
X-432764Y-33301D02*
X-432761Y-34412D01*
X-432768Y-32190D02*
X-432764Y-33301D01*
X-432771Y-31079D02*
X-432768Y-32190D01*
X-432774Y-29968D02*
X-432771Y-31079D01*
X-432776Y-28857D02*
X-432774Y-29968D01*
X-432779Y-27747D02*
X-432776Y-28857D01*
X-432781Y-26635D02*
X-432779Y-27747D01*
X-432784Y-25525D02*
X-432781Y-26635D01*
X-432786Y-24414D02*
X-432784Y-25525D01*
X-432788Y-23303D02*
X-432786Y-24414D01*
X-432789Y-22192D02*
X-432788Y-23303D01*
X-432791Y-21081D02*
X-432789Y-22192D01*
X-432793Y-19970D02*
X-432791Y-21081D01*
X-432794Y-18859D02*
X-432793Y-19970D01*
X-432797Y-16637D02*
X-432794Y-18859D01*
X-432797Y-15526D02*
X-432797Y-16637D01*
X-432798Y-14415D02*
X-432797Y-15526D01*
X-432799Y-13304D02*
X-432798Y-14415D01*
X-432799Y-12193D02*
X-432799Y-13304D01*
X-432800Y-11083D02*
X-432799Y-12193D01*
X-432800Y-9972D02*
X-432800Y-11083D01*
X-432800Y-8861D02*
X-432800Y-9972D01*
X-432800Y-7750D02*
X-432800Y-8861D01*
X-432800Y-6639D02*
X-432800Y-7750D01*
X-432800Y-6639D02*
X-432800Y-6639D01*
X-432800Y-5528D02*
X-432800Y-5528D01*
X-432800Y-4417D01*
X-432800Y-3306D01*
X-432800Y-2195D01*
X-432800Y-1084D01*
X-432800Y27D01*
X-432800Y1138D02*
X-432800Y27D01*
X-432800Y2248D02*
X-432800Y1138D01*
X-432800Y3359D02*
X-432800Y2248D01*
X-432800Y4470D02*
X-432800Y3359D01*
X-432800Y5581D02*
X-432800Y4470D01*
X-432800Y5581D02*
X-432800D01*
X-432800Y6692D02*
X-432800D01*
X-432800Y7803D01*
X-432800Y8914D01*
X-432800Y10025D01*
X-432800Y11136D01*
X-432799Y12247D01*
X-432799Y13358D01*
X-432798Y14469D01*
X-432797Y15580D01*
X-432796Y16690D01*
X-432795Y17802D01*
X-432793Y20023D01*
X-432791Y21134D01*
X-432789Y22245D01*
X-432788Y23356D01*
X-432785Y24467D01*
X-432783Y25578D01*
X-432781Y26689D01*
X-432779Y27800D01*
X-432776Y28911D01*
X-432773Y30022D01*
X-432771Y31133D01*
X-432767Y32243D01*
X-432764Y33354D01*
X-432761Y34465D01*
X-432757Y35576D01*
X-432753Y36687D01*
X-432749Y37798D01*
X-432745Y38909D01*
X-432740Y40020D01*
X-432736Y41131D01*
X-432730Y42242D01*
X-432725Y43353D01*
X-432719Y44464D01*
X-432713Y45574D01*
X-432707Y46685D01*
X-432700Y47796D01*
X-432693Y48907D01*
X-432685Y50018D01*
X-432677Y51129D01*
X-432669Y52240D01*
X-432660Y53351D01*
X-432651Y54462D01*
X-432642Y55573D01*
X-432632Y56683D01*
X-432621Y57794D01*
X-432611Y58905D01*
X-432600Y60016D01*
X-432588Y61127D01*
X-432577Y62238D01*
X-432565Y63349D01*
X-432553Y64460D01*
X-432540Y65570D01*
X-432528Y66681D01*
X-432514Y67792D01*
X-432501Y68903D01*
X-432487Y70014D01*
X-432472Y71125D01*
X-432457Y72235D01*
X-432441Y73346D01*
X-432424Y74457D01*
X-432407Y75568D01*
X-432390Y76679D01*
X-432373Y77789D01*
X-432355Y78900D01*
X-432338Y80011D01*
X-432321Y81122D01*
X-432304Y82233D01*
X-432288Y83343D01*
X-432272Y84454D01*
X-432255Y85565D01*
X-432238Y86676D01*
X-432220Y87787D01*
X-432201Y88897D01*
X-432180Y90008D01*
X-432157Y91119D01*
X-432133Y92229D01*
X-432106Y93340D01*
X-432077Y94451D01*
X-432046Y95561D01*
X-432012Y96671D01*
X-431976Y97782D01*
X-431938Y98892D01*
X-431897Y100002D01*
X-431854Y101112D01*
X-431810Y102222D01*
X-431763Y103332D01*
X-431713Y104442D01*
X-431663Y105552D01*
X-431610Y106662D01*
X-431555Y107771D01*
X-431499Y108881D01*
X-431441Y109990D01*
X-431381Y111100D01*
X-431320Y112209D01*
X-431256Y113318D01*
X-431191Y114427D01*
X-431124Y115536D01*
X-431056Y116645D01*
X-430985Y117754D01*
X-430912Y118862D01*
X-430837Y119971D01*
X-430760Y121079D01*
X-430681Y122187D01*
X-430599Y123295D01*
X-430515Y124403D01*
X-430250Y127725D01*
X-429963Y131046D01*
X-429656Y134364D01*
X-429329Y137681D01*
X-428981Y140996D01*
X-428738Y143204D01*
X-428485Y145412D01*
X-428223Y147618D01*
X-427952Y149824D01*
X-427671Y152028D01*
X-427379Y154230D01*
X-427077Y156432D01*
X-426766Y158631D01*
X-426444Y160830D01*
X-426111Y163027D01*
X-425768Y165222D01*
X-425768D01*
X-423067Y180539D02*
Y180539D01*
Y180539D02*
X-422639Y182719D01*
X-422199Y184897D01*
X-421749Y187073D01*
X-421287Y189246D01*
X-420813Y191417D01*
X-419579Y196833D01*
X-418270Y202231D01*
X-417726Y204386D01*
X-417170Y206537D01*
X-416602Y208685D01*
X-416021Y210830D01*
X-415428Y212971D01*
X-414822Y215109D01*
X-413889Y218308D01*
X-412926Y221499D01*
X-411934Y224681D01*
X-411934D02*
X-411934D01*
X-409503Y232068D02*
X-409503Y232068D01*
X-408412Y235217D01*
X-407292Y238356D01*
X-406912Y239400D01*
X-406529Y240443D01*
X-406142Y241485D01*
X-405752Y242525D01*
X-405359Y243564D01*
X-404962Y244601D01*
X-404561Y245637D01*
X-404156Y246672D01*
X-403748Y247705D01*
X-402921Y249768D01*
X-402501Y250796D01*
X-402079Y251824D01*
X-401652Y252850D01*
X-401222Y253874D01*
X-400788Y254897D01*
X-400351Y255918D01*
X-399910Y256938D01*
X-399466Y257956D01*
X-399019Y258973D01*
X-398568Y259989D01*
X-398114Y261002D01*
X-397656Y262015D01*
X-397195Y263025D01*
X-396730Y264035D01*
X-396261Y265042D01*
X-395789Y266048D01*
X-395313Y267052D01*
X-394834Y268054D01*
X-393864Y270053D01*
X-392878Y272044D01*
X-391877Y274028D01*
X-390861Y276004D01*
X-388781Y279931D01*
X-388252Y280908D01*
X-387719Y281882D01*
X-387182Y282855D01*
X-386642Y283826D01*
X-386097Y284795D01*
X-385550Y285761D01*
X-384999Y286726D01*
X-384445Y287689D01*
X-383887Y288650D01*
X-383326Y289608D01*
X-382761Y290565D01*
X-382192Y291520D01*
X-381619Y292472D01*
X-381043Y293421D01*
X-380462Y294368D01*
X-379877Y295313D01*
X-378695Y297194D01*
X-378098Y298131D01*
X-377497Y299066D01*
X-376892Y299997D01*
X-376283Y300927D01*
X-375671Y301854D01*
X-375055Y302778D01*
X-374435Y303700D01*
X-373812Y304620D01*
X-373186Y305538D01*
X-372556Y306453D01*
X-371923Y307366D01*
X-371286Y308277D01*
X-370646Y309185D01*
X-370002Y310090D01*
X-369353Y310992D01*
X-368701Y311891D01*
X-368045Y312788D01*
X-367385Y313681D01*
X-366720Y314571D01*
X-366052Y315459D01*
X-365379Y316343D01*
X-364703Y317225D01*
X-364023Y318103D01*
X-363339Y318979D01*
X-362651Y319852D01*
X-361960Y320722D01*
X-360568Y322453D01*
X-359867Y323315D01*
X-359162Y324174D01*
X-358454Y325030D01*
X-357742Y325883D01*
X-357027Y326733D01*
X-356307Y327580D01*
X-355585Y328423D01*
X-353394Y330935D01*
X-351915Y332593D01*
X-350422Y334239D01*
X-348916Y335873D01*
X-347396Y337493D01*
X-346630Y338299D01*
X-345862Y339101D01*
X-345090Y339900D01*
X-344314Y340695D01*
X-343535Y341488D01*
X-342753Y342276D01*
X-341967Y343061D01*
X-340384Y344621D01*
X-339587Y345395D01*
X-338787Y346166D01*
X-337984Y346933D01*
X-337177Y347697D01*
X-336367Y348457D01*
X-335553Y349214D01*
X-334737Y349967D01*
X-331440Y352947D01*
X-329772Y354416D01*
X-328092Y355870D01*
X-322116Y360846D02*
X-319510Y362923D01*
X-308829Y370900D02*
X-307010Y372177D01*
X-305182Y373438D01*
X-303342Y374685D01*
X-299634Y377135D01*
X-297766Y378337D01*
X-295887Y379523D01*
X-293999Y380694D01*
X-292100Y381849D01*
X-291147Y382421D01*
X-290193Y382988D01*
X-289235Y383552D01*
X-288276Y384112D01*
X-287314Y384668D01*
X-286350Y385220D01*
X-285384Y385769D01*
X-284415Y386314D01*
X-282473Y387393D01*
X-280523Y388457D01*
X-278564Y389507D01*
X-276599Y390543D01*
X-273636Y392070D01*
X-272645Y392572D01*
X-271652Y393070D01*
X-270657Y393564D01*
X-269660Y394054D01*
X-268661Y394541D01*
X-267660Y395023D01*
X-266657Y395501D01*
X-265652Y395975D01*
X-264645Y396444D01*
X-263636Y396909D01*
X-262626Y397370D01*
X-261614Y397828D01*
X-260600Y398282D01*
X-259585Y398734D01*
X-258569Y399183D01*
X-257552Y399630D01*
X-256534Y400075D01*
X-255515Y400519D01*
X-254496Y400961D01*
X-253476Y401402D01*
X-252455Y401840D01*
X-251432Y402276D01*
X-250409Y402708D01*
X-249383Y403135D01*
X-248356Y403559D01*
X-247327Y403977D01*
X-246296Y404389D01*
X-245262Y404795D01*
X-244225Y405194D01*
X-243186Y405587D01*
X-242145Y405974D01*
X-241101Y406355D01*
X-240056Y406732D01*
X-239010Y407105D01*
X-237962Y407474D01*
X-236912Y407840D01*
X-235862Y408204D01*
X-234812Y408565D01*
X-233760Y408924D01*
X-232708Y409282D01*
X-231656Y409639D01*
X-230603Y409993D01*
X-229549Y410345D01*
X-228495Y410695D01*
X-227439Y411041D01*
X-226383Y411385D01*
X-225326Y411726D01*
X-224267Y412063D01*
X-223208Y412397D01*
X-222147Y412727D01*
X-221085Y413053D01*
X-220022Y413376D01*
X-218958Y413695D01*
X-217893Y414011D01*
X-216827Y414323D01*
X-215760Y414632D01*
X-214692Y414938D01*
X-213623Y415241D01*
X-212553Y415541D01*
X-211482Y415838D01*
X-209339Y416424D01*
X-207192Y416998D01*
X-205043Y417560D01*
X-202890Y418110D01*
X-200734Y418648D01*
X-197495Y419431D01*
X-195331Y419938D01*
X-193165Y420433D01*
X-190996Y420915D01*
X-188825Y421386D01*
X-185563Y422070D01*
X-185563D02*
X-185563D01*
X-177931Y423566D02*
X-173559Y424358D01*
X-163077Y416664D02*
X-163077Y416664D01*
X-163077Y416664D02*
X-163007Y416130D01*
Y416130D01*
X-153025Y408362D02*
X-153025D01*
X-153025D02*
X-152417Y408434D01*
X-152113Y408471D01*
X-151809Y408508D01*
X-151505Y408546D01*
X-151201Y408584D01*
X-150897Y408622D01*
X-150593Y408661D01*
X-150289Y408700D01*
X-149985Y408740D01*
X-149682Y408781D01*
X-149378Y408821D01*
X-149075Y408863D01*
X-148771Y408905D01*
X-148468Y408947D01*
X-148164Y408990D01*
X-147861Y409033D01*
X-147558Y409076D01*
X-147254Y409118D01*
X-146951Y409159D01*
X-146647Y409199D01*
X-146343Y409238D01*
X-146039Y409275D01*
X-145735Y409311D01*
X-145431Y409346D01*
X-145126Y409380D01*
X-144822Y409413D01*
X-144517Y409445D01*
X-144213Y409477D01*
X-143908Y409509D01*
X-143603Y409540D01*
X-143299Y409572D01*
X-142994Y409603D01*
X-142689Y409635D01*
X-142385Y409667D01*
X-142080Y409700D01*
X-141775Y409733D01*
X-141471Y409767D01*
X-141166Y409802D01*
X-140862Y409838D01*
X-140558Y409875D01*
X-140254Y409912D01*
X-139950Y409950D01*
X-139646Y409988D01*
X-139342Y410027D01*
X-139038Y410064D01*
X-138734Y410102D01*
X-138430Y410139D01*
X-138126Y410175D01*
X-137822Y410210D01*
X-137517Y410244D01*
X-137213Y410277D01*
X-136908Y410308D01*
X-136603Y410337D01*
X-136298Y410365D01*
X-135993Y410392D01*
X-135688Y410418D01*
X-135382Y410445D01*
X-135077Y410473D01*
X-134773Y410503D01*
X-134468Y410536D01*
X-134164Y410569D01*
X-133859Y410604D01*
X-133555Y410638D01*
X-133250Y410671D01*
X-132946Y410703D01*
X-132641Y410732D01*
X-132336Y410761D01*
X-132031Y410788D01*
X-131726Y410813D01*
X-131420Y410839D01*
X-131115Y410863D01*
X-130809Y410886D01*
X-130504Y410910D01*
X-130198Y410933D01*
X-129893Y410956D01*
X-129588Y410980D01*
X-129282Y411004D01*
X-128977Y411029D01*
X-128672Y411054D01*
X-128366Y411080D01*
X-128061Y411107D01*
X-127756Y411136D01*
X-127451Y411164D01*
X-127146Y411194D01*
X-126841Y411223D01*
X-126536Y411253D01*
X-126231Y411283D01*
X-125926Y411313D01*
X-125622Y411343D01*
X-125317Y411372D01*
X-125012Y411401D01*
X-124707Y411429D01*
X-124402Y411456D01*
X-124096Y411482D01*
X-123791Y411508D01*
X-123486Y411532D01*
X-123180Y411554D01*
X-122875Y411575D01*
X-122569Y411595D01*
X-122263Y411613D01*
X-121958Y411632D01*
X-121652Y411651D01*
X-121346Y411671D01*
X-121041Y411692D01*
X-120735Y411716D01*
X-120430Y411742D01*
X-120125Y411768D01*
X-119820Y411795D01*
X-119514Y411821D01*
X-119209Y411845D01*
X-118904Y411868D01*
X-118598Y411889D01*
X-118293Y411910D01*
X-117987Y411929D01*
X-117681Y411947D01*
X-117375Y411964D01*
X-117069Y411981D01*
X-116763Y411996D01*
X-116458Y412012D01*
X-116152Y412028D01*
X-115845Y412043D01*
X-115540Y412058D01*
X-115234Y412074D01*
X-114928Y412090D01*
X-114622Y412107D01*
X-114316Y412124D01*
X-114010Y412142D01*
X-113704Y412161D01*
X-113399Y412180D01*
X-113093Y412201D01*
X-112787Y412222D01*
X-112482Y412243D01*
X-112176Y412265D01*
X-111870Y412287D01*
X-111565Y412308D01*
X-111259Y412330D01*
X-110954Y412351D01*
X-110648Y412371D01*
X-110342Y412391D01*
X-110037Y412410D01*
X-109731Y412429D01*
X-109425Y412446D01*
X-109119Y412462D01*
X-108813Y412476D01*
X-108507Y412489D01*
X-108201Y412501D01*
X-107895Y412512D01*
X-107589Y412523D01*
X-107283Y412536D01*
X-106977Y412549D01*
X-106671Y412565D01*
X-106365Y412582D01*
X-106059Y412600D01*
X-105754Y412618D01*
X-105448Y412637D01*
X-105142Y412655D01*
X-104836Y412672D01*
X-104530Y412687D01*
X-104224Y412701D01*
X-103918Y412714D01*
X-103612Y412726D01*
X-103306Y412737D01*
X-103000Y412747D01*
X-102694Y412757D01*
X-102388Y412766D01*
X-102081Y412775D01*
X-101775Y412784D01*
X-101469Y412793D01*
X-101163Y412802D01*
X-100857Y412811D01*
X-100550Y412820D01*
X-100244Y412830D01*
X-99938Y412840D01*
X-99632Y412851D01*
X-99326Y412863D01*
X-99020Y412875D01*
X-98714Y412888D01*
X-98407Y412901D01*
X-98101Y412914D01*
X-97795Y412928D01*
X-97489Y412941D01*
X-97183Y412955D01*
X-96877Y412969D01*
X-96571Y412982D01*
X-96265Y412996D01*
X-95959Y413009D01*
X-95653Y413022D01*
X-95347Y413034D01*
X-95041Y413046D01*
X-94735Y413058D01*
X-94429Y413068D01*
X-94123Y413078D01*
X-93816Y413088D01*
X-93510Y413096D01*
X-93204Y413103D01*
X-92898Y413110D01*
X-92592Y413116D01*
X-92285Y413122D01*
X-91979Y413127D01*
X-91673Y413131D01*
X-91366Y413135D01*
X-91060Y413139D01*
X-90754Y413143D01*
X-90448Y413147D01*
X-90141Y413151D01*
X-89835Y413155D01*
X-89529Y413159D01*
X-89222Y413164D01*
X-88916Y413168D01*
X-88610Y413173D01*
X-88304Y413179D01*
X-87997Y413184D01*
X-87691Y413189D01*
X-87385Y413195D01*
X-87079Y413201D01*
X-86772Y413207D01*
X-86466Y413213D01*
X-86160Y413219D01*
X-85853Y413225D01*
X-85547Y413231D01*
X-85241Y413237D01*
X-84935Y413244D01*
X-84628Y413250D01*
X-84322Y413256D01*
X-84016Y413263D01*
X-83710Y413269D01*
X-83403Y413276D01*
X-83097Y413282D01*
X-82791Y413288D01*
X-82485Y413295D01*
X-82178Y413301D01*
X-81872Y413307D01*
X-81566Y413313D01*
X-81260Y413319D01*
X-80647Y413331D01*
X-80341Y413336D01*
X-80035Y413342D01*
X-79728Y413347D01*
X-79422Y413353D01*
X-79116Y413358D01*
X-78809Y413363D01*
X-78503Y413368D01*
X-78197Y413373D01*
X-77891Y413378D01*
X-77584Y413383D01*
X-77278Y413388D01*
X-76972Y413393D01*
X-76666Y413397D01*
X-76359Y413402D01*
X-76053Y413407D01*
X-75747Y413411D01*
X-75440Y413416D01*
X-75134Y413420D01*
X-74828Y413424D01*
X-74521Y413429D01*
X-74215Y413433D01*
X-73909Y413437D01*
X-73603Y413441D01*
X-73296Y413446D01*
X-72990Y413450D01*
X-72684Y413454D01*
X-72377Y413458D01*
X-72071Y413462D01*
X-71765Y413466D01*
X-71459Y413470D01*
X-71152Y413474D01*
X-70846Y413478D01*
X-70540Y413482D01*
X-70233Y413486D01*
X-69927Y413490D01*
X-69621Y413494D01*
X-69314Y413498D01*
X-69008Y413502D01*
X-68702Y413506D01*
X-68396Y413509D01*
X-68089Y413513D01*
X-67783Y413517D01*
X-67477Y413521D01*
X-67170Y413525D01*
X-66864Y413528D01*
X-66558Y413532D01*
X-66252Y413536D01*
X-65945Y413539D01*
X-65639Y413543D01*
X-65333Y413546D01*
X-65026Y413550D01*
X-64720Y413554D01*
X-64414Y413557D01*
X-64107Y413560D01*
X-63801Y413564D01*
X-63495Y413567D01*
X-63189Y413570D01*
X-62576Y413577D01*
X-61963Y413583D01*
X-61351Y413590D01*
X-60738Y413596D01*
X-60125Y413602D01*
X-59513Y413608D01*
X-58900Y413613D01*
X-58288Y413619D01*
X-57675Y413624D01*
X-57062Y413630D01*
X-56450Y413635D01*
X-55837Y413640D01*
X-55225Y413645D01*
X-54612Y413650D01*
X-53999Y413654D01*
X-53387Y413659D01*
X-52774Y413663D01*
X-52161Y413668D01*
X-51549Y413672D01*
X-50936Y413676D01*
X-50324Y413680D01*
X-49711Y413684D01*
X-49098Y413688D01*
X-48486Y413692D01*
X-47873Y413695D01*
X-47260Y413699D01*
X-46954Y413701D01*
X-46648Y413702D01*
X-46342Y413704D01*
X-46035Y413706D01*
X-45729Y413707D01*
X-45423Y413709D01*
X-45116Y413711D01*
X-44810Y413712D01*
X-44504Y413714D01*
X-44197Y413715D01*
X-43891Y413717D01*
X-43585Y413718D01*
X-43278Y413720D01*
X-42972Y413721D01*
X-42666Y413722D01*
X-42359Y413724D01*
X-42053Y413725D01*
X-41747Y413727D01*
X-41440Y413728D01*
X-41134Y413729D01*
X-40828Y413731D01*
X-40521Y413732D01*
X-40215Y413733D01*
X-39909Y413735D01*
X-39602Y413736D01*
X-39296Y413737D01*
X-38990Y413739D01*
X-38684Y413740D01*
X-38377Y413741D01*
X-38071Y413742D01*
X-37765Y413744D01*
X-37458Y413745D01*
X-37152Y413746D01*
X-36846Y413747D01*
X-36539Y413749D01*
X-36233Y413750D01*
X-35927Y413751D01*
X-35620Y413752D01*
X-35314Y413754D01*
X-35008Y413755D01*
X-34701Y413756D01*
X-34395Y413757D01*
X-34089Y413758D01*
X-33782Y413759D01*
X-33476Y413761D01*
X-33170Y413762D01*
X-32864Y413763D01*
X-32557Y413764D01*
X-32251Y413765D01*
X-31945Y413766D01*
X-31638Y413767D01*
X-31332Y413768D01*
X-31026Y413769D01*
X-30719Y413770D01*
X-30413Y413771D01*
X-30107Y413772D01*
X-29800Y413773D01*
X-29494Y413774D01*
X-29188Y413775D01*
X-28881Y413776D01*
X-28575Y413777D01*
X-28269Y413777D01*
X-27963Y413778D01*
X-27656Y413779D01*
X-27350Y413780D01*
X-26737Y413781D01*
X-26431Y413781D01*
X-26125Y413782D01*
X-25818Y413782D01*
X-25512Y413783D01*
X-25206Y413783D01*
X-24899Y413784D01*
X-24593Y413784D01*
X-24287Y413784D01*
X-23980Y413785D01*
X-23674Y413785D01*
X-23368Y413786D01*
X-23061Y413786D01*
X-22755Y413786D01*
X-22449Y413786D01*
X-22142Y413787D01*
X-21836Y413787D01*
X-21530Y413787D01*
X-21223Y413787D01*
X-20917Y413788D01*
X-20611Y413788D01*
X-20305Y413788D01*
X-19998Y413788D01*
X-19692Y413789D01*
X-19386Y413789D01*
X-19079Y413789D01*
X-18773Y413789D01*
X-18467Y413790D01*
X-18160Y413790D01*
X-17854Y413790D01*
X-17548Y413791D01*
X-17241Y413791D01*
X-16935Y413791D01*
X-16629Y413792D01*
X-16322Y413792D01*
X-16016Y413792D01*
X-15710Y413793D01*
X-15403Y413793D01*
X-15097Y413793D01*
X-14791Y413794D01*
X-14484Y413794D01*
X-14178Y413795D01*
X-13872Y413795D01*
X-13565Y413796D01*
X-13259Y413796D01*
X-12953Y413796D01*
X-12646Y413797D01*
X-12340Y413797D01*
X-12034Y413797D01*
X-11728Y413798D01*
X-11421Y413798D01*
X-11115Y413798D01*
X-10809Y413799D01*
X-10502Y413799D01*
X-10196Y413799D01*
X-9890Y413800D01*
X-9583Y413800D01*
X-9277Y413800D01*
X-8971Y413800D01*
X-8664Y413800D01*
X-8358Y413800D01*
X-8052Y413801D01*
X-7745Y413801D01*
X-7439Y413801D01*
X-7133Y413801D01*
X-6827Y413801D01*
X-6520Y413801D01*
X-5601D01*
X-5295Y413801D01*
X-4989Y413801D01*
X-4682Y413801D01*
X-4376Y413801D01*
X-4070Y413801D01*
X-3763Y413801D01*
X-3457Y413801D01*
X-3151Y413800D01*
X-2844Y413800D01*
X-2538Y413800D01*
X-2232Y413800D01*
X-1925Y413800D01*
X-1619Y413800D01*
X-1313Y413800D01*
X-1006Y413800D01*
X-700Y413800D01*
X-394Y413800D01*
X525D01*
X831Y413800D01*
X1138Y413800D01*
X1444Y413800D01*
X1751Y413800D01*
X2057Y413800D01*
X2363Y413800D01*
X2669Y413800D01*
X2976Y413800D01*
X3282Y413800D01*
X3588Y413801D01*
X3895Y413801D01*
X4201Y413801D01*
X4507Y413801D01*
X4814Y413801D01*
X5120Y413801D01*
X5426Y413801D01*
X5733D01*
X6039Y413801D01*
X6345Y413801D01*
X6652D01*
X6958Y413801D01*
X7264Y413801D01*
X7570Y413801D01*
X7877Y413801D01*
X8183Y413800D01*
X8490Y413800D01*
X8796Y413800D01*
X9102Y413800D01*
X9409Y413800D01*
X9715Y413800D01*
X10021Y413799D01*
X10327Y413799D01*
X10634Y413799D01*
X10940Y413798D01*
X11246Y413798D01*
X11553Y413798D01*
X11859Y413797D01*
X12165Y413797D01*
X12472Y413797D01*
X12778Y413797D01*
X13084Y413796D01*
X13391Y413796D01*
X13697Y413795D01*
X14003Y413795D01*
X14310Y413795D01*
X14616Y413794D01*
X14922Y413794D01*
X15229Y413793D01*
X15535Y413793D01*
X15841Y413793D01*
X16148Y413792D01*
X16454Y413792D01*
X16760Y413792D01*
X17066Y413791D01*
X17373Y413791D01*
X17679Y413790D01*
X17985Y413790D01*
X18292Y413790D01*
X18598Y413789D01*
X18904Y413789D01*
X19211Y413789D01*
X19517Y413789D01*
X19823Y413788D01*
X20130Y413788D01*
X20436Y413788D01*
X20742Y413788D01*
X21049Y413787D01*
X21355Y413787D01*
X21661Y413787D01*
X21967Y413787D01*
X22274Y413787D01*
X22580Y413786D01*
X22887Y413786D01*
X23193Y413786D01*
X23499Y413785D01*
X23805Y413785D01*
X24112Y413785D01*
X24418Y413784D01*
X24724Y413784D01*
X25031Y413784D01*
X25337Y413783D01*
X25643Y413783D01*
X25950Y413782D01*
X26256Y413782D01*
X26562Y413781D01*
X26869Y413781D01*
X27175Y413780D01*
X27481Y413779D01*
X27788Y413779D01*
X28094Y413778D01*
X28400Y413777D01*
X28707Y413776D01*
X29013Y413775D01*
X29319Y413775D01*
X29625Y413774D01*
X29932Y413773D01*
X30238Y413772D01*
X30545Y413771D01*
X30851Y413770D01*
X31157Y413769D01*
X31463Y413768D01*
X31770Y413767D01*
X32076Y413766D01*
X32382Y413765D01*
X32689Y413763D01*
X32995Y413762D01*
X33301Y413761D01*
X33608Y413760D01*
X33914Y413759D01*
X34220Y413758D01*
X34527Y413756D01*
X34833Y413755D01*
X35139Y413754D01*
X35445Y413753D01*
X35752Y413752D01*
X36058Y413750D01*
X36365Y413749D01*
X36671Y413748D01*
X36977Y413747D01*
X37283Y413746D01*
X37590Y413744D01*
X37896Y413743D01*
X38202Y413742D01*
X38509Y413741D01*
X38815Y413740D01*
X39121Y413738D01*
X39428Y413737D01*
X39734Y413736D01*
X40040Y413734D01*
X40347Y413733D01*
X40653Y413732D01*
X40959Y413731D01*
X41266Y413729D01*
X41572Y413728D01*
X41878Y413726D01*
X42185Y413725D01*
X42491Y413724D01*
X42797Y413722D01*
X43103Y413721D01*
X43410Y413719D01*
X43716Y413718D01*
X44022Y413716D01*
X44329Y413715D01*
X44635Y413713D01*
X44941Y413711D01*
X45248Y413710D01*
X45554Y413708D01*
X45860Y413706D01*
X46167Y413705D01*
X46473Y413703D01*
X46779Y413701D01*
X47086Y413699D01*
X47392Y413697D01*
X47698Y413695D01*
X48004Y413694D01*
X48311Y413692D01*
X48617Y413690D01*
X48923Y413688D01*
X49230Y413686D01*
X49536Y413684D01*
X49842Y413682D01*
X50149Y413680D01*
X50455Y413677D01*
X50761Y413675D01*
X51068Y413673D01*
X51374Y413671D01*
X51680Y413669D01*
X51987Y413667D01*
X52293Y413665D01*
X52599Y413662D01*
X52906Y413660D01*
X53212Y413658D01*
X53518Y413655D01*
X53824Y413653D01*
X54131Y413651D01*
X54437Y413648D01*
X54743Y413646D01*
X55050Y413643D01*
X55356Y413641D01*
X55662Y413639D01*
X55969Y413636D01*
X56275Y413634D01*
X56581Y413631D01*
X56887Y413629D01*
X57194Y413626D01*
X57500Y413624D01*
X57806Y413621D01*
X58113Y413618D01*
X58419Y413616D01*
X58725Y413613D01*
X59032Y413610D01*
X59338Y413607D01*
X59644Y413605D01*
X59951Y413602D01*
X60257Y413599D01*
X60563Y413596D01*
X60869Y413593D01*
X61176Y413590D01*
X61482Y413587D01*
X61788Y413585D01*
X62095Y413581D01*
X62401Y413578D01*
X62707Y413575D01*
X63014Y413572D01*
X63320Y413569D01*
X65158Y413549D01*
X66996Y413528D01*
X68833Y413505D01*
X70671Y413481D01*
X72509Y413456D01*
X72815Y413452D01*
X73121Y413447D01*
X73428Y413443D01*
X73734Y413438D01*
X74040Y413434D01*
X74347Y413429D01*
X74653Y413425D01*
X74959Y413420D01*
X75265Y413416D01*
X75572Y413411D01*
X75878Y413406D01*
X76184Y413402D01*
X76491Y413397D01*
X76797Y413392D01*
X77103Y413387D01*
X77409Y413382D01*
X77716Y413378D01*
X78022Y413373D01*
X78328Y413368D01*
X78635Y413363D01*
X78941Y413358D01*
X79247Y413353D01*
X79553Y413348D01*
X79860Y413343D01*
X80166Y413338D01*
X80472Y413332D01*
X80779Y413327D01*
X81085Y413322D01*
X81391Y413317D01*
X81697Y413312D01*
X82003Y413306D01*
X82310Y413301D01*
X82616Y413296D01*
X82922Y413290D01*
X83229Y413285D01*
X83535Y413280D01*
X83841Y413274D01*
X84148Y413269D01*
X84454Y413263D01*
X84760Y413258D01*
X85066Y413252D01*
X85372Y413246D01*
X85679Y413241D01*
X85985Y413235D01*
X86291Y413229D01*
X86598Y413223D01*
X86904Y413217D01*
X87210Y413211D01*
X87516Y413205D01*
X87823Y413199D01*
X88129Y413193D01*
X88435Y413187D01*
X88741Y413181D01*
X89048Y413174D01*
X89354Y413168D01*
X89660Y413161D01*
X89966Y413155D01*
X90273Y413148D01*
X90579Y413142D01*
X90885Y413135D01*
X91191Y413128D01*
X91498Y413121D01*
X91804Y413114D01*
X92110Y413107D01*
X92416Y413099D01*
X92723Y413092D01*
X93029Y413084D01*
X93335Y413077D01*
X93641Y413069D01*
X93947Y413061D01*
X96091Y413000D01*
X97622Y412952D01*
X98846Y412910D01*
X100071Y412865D01*
X101295Y412818D01*
X102520Y412769D01*
X103744Y412717D01*
X104968Y412662D01*
X106192Y412605D01*
X107416Y412546D01*
X108639Y412484D01*
X109557Y412436D01*
X110475Y412386D01*
X111392Y412335D01*
X112310Y412283D01*
X113227Y412230D01*
X114145Y412175D01*
X115062Y412118D01*
X115979Y412060D01*
X116896Y412001D01*
X117813Y411940D01*
X118730Y411877D01*
X119647Y411813D01*
X120563Y411748D01*
X121480Y411680D01*
X122396Y411612D01*
X122396D02*
X122396D01*
X132163Y410778D02*
X138259Y410164D01*
X139173Y410066D01*
X140086Y409966D01*
X140999Y409865D01*
X141913Y409762D01*
X142826Y409657D01*
X143738Y409551D01*
X144651Y409442D01*
X145563Y409333D01*
X146476Y409221D01*
X147388Y409107D01*
X148299Y408992D01*
X149211Y408875D01*
X150122Y408756D01*
X151033Y408635D01*
X151944Y408513D01*
X152854Y408388D01*
X163007Y416135D02*
Y416135D01*
Y416135D02*
X163080Y416687D01*
X163080D02*
X163080D01*
X173607Y424374D02*
Y424374D01*
Y424374D02*
X174357Y424237D01*
X174732Y424168D01*
X175107Y424099D01*
X175483Y424029D01*
X175858Y423960D01*
X176233Y423889D01*
X176607Y423819D01*
X176982Y423748D01*
X177357Y423677D01*
X177732Y423605D01*
X178107Y423534D01*
X178481Y423462D01*
X178856Y423390D01*
X179230Y423317D01*
X179605Y423245D01*
X179979Y423172D01*
X180354Y423099D01*
X180728Y423026D01*
X181103Y422953D01*
X181477Y422879D01*
X181851Y422805D01*
X182225Y422731D01*
X182599Y422657D01*
X182973Y422582D01*
X183347Y422507D01*
X183721Y422432D01*
X184095Y422356D01*
X184469Y422281D01*
X184843Y422205D01*
X185217Y422128D01*
X185590Y422052D01*
X185964Y421975D01*
X186337Y421898D01*
X186711Y421820D01*
X187084Y421742D01*
X187458Y421664D01*
X187831Y421586D01*
X188204Y421507D01*
X188577Y421428D01*
X188950Y421348D01*
X189323Y421269D01*
X189696Y421189D01*
X190069Y421108D01*
X190442Y421027D01*
X190814Y420946D01*
X191187Y420864D01*
X193421Y420367D01*
X195652Y419856D01*
X197880Y419333D01*
X200104Y418796D01*
X202326Y418247D01*
X205284Y417495D01*
X206760Y417110D01*
X208235Y416720D01*
X209709Y416324D01*
X211181Y415922D01*
X212651Y415515D01*
X214119Y415101D01*
X216685Y414363D01*
X221436Y412942D01*
X225804Y411573D01*
X229068Y410510D01*
X232322Y409416D01*
X235565Y408289D01*
X237721Y407521D01*
X239155Y407001D01*
X240587Y406474D01*
X242017Y405941D01*
X243444Y405401D01*
X244869Y404855D01*
X246291Y404302D01*
X247710Y403742D01*
X250894Y402458D01*
X254063Y401140D01*
X257219Y399788D01*
X259314Y398868D01*
X260360Y398402D01*
X261404Y397933D01*
X262446Y397460D01*
X263486Y396983D01*
X264524Y396503D01*
X265561Y396018D01*
X266596Y395530D01*
X267629Y395038D01*
X269689Y394041D01*
X272083Y392858D01*
X274466Y391653D01*
X276837Y390426D01*
X281210Y388088D01*
X283881Y386612D01*
X286536Y385108D01*
X288517Y383962D01*
X289833Y383189D01*
X291145Y382410D01*
X292452Y381623D01*
X293755Y380829D01*
X295054Y380028D01*
X295054D02*
X295054D01*
X305908Y372932D02*
X307162Y372064D01*
X308412Y371189D01*
X309657Y370306D01*
X311205Y369193D01*
X312746Y368068D01*
X315498Y366016D01*
X317921Y364161D01*
X320322Y362278D01*
X323884Y359403D01*
X326230Y357451D01*
X328553Y355473D01*
X333129Y351434D02*
X333129D01*
X339259Y345704D02*
Y345704D01*
X341170Y343839D01*
X343062Y341955D01*
X345466Y339505D01*
X347314Y337577D01*
X349141Y335630D01*
X353746Y330537D02*
Y330537D01*
X355748Y328234D01*
X365348Y316378D02*
X366269Y315161D01*
X367183Y313939D01*
X368090Y312712D01*
X368990Y311480D01*
X368990D01*
X372304Y306816D02*
X374030Y304300D01*
X376566Y300489D01*
X377189Y299530D01*
X377809Y298568D01*
X378425Y297603D01*
X379037Y296636D01*
X379644Y295666D01*
X380248Y294694D01*
X380848Y293720D01*
X382037Y291764D01*
X383015Y290127D01*
X383983Y288483D01*
X384939Y286833D01*
X385885Y285177D01*
X387373Y282513D01*
X388106Y281175D01*
X388832Y279833D01*
X389551Y278487D01*
X390263Y277138D01*
X390967Y275784D01*
X392184Y273407D01*
X393716Y270335D01*
X395378Y266902D01*
X396996Y263448D01*
X398727Y259625D01*
X400406Y255780D01*
X401300Y253673D01*
X402179Y251560D01*
X403043Y249441D01*
X403892Y247316D01*
X404726Y245184D01*
X405410Y243404D01*
X406084Y241620D01*
X406748Y239832D01*
X407402Y238040D01*
X408046Y236245D01*
X408680Y234446D01*
X410283Y229754D01*
X411820Y225039D01*
X412845Y221763D01*
X413289Y220303D01*
X413619Y219208D01*
X413945Y218111D01*
X414268Y217013D01*
X414587Y215914D01*
X414903Y214814D01*
X415216Y213713D01*
X415525Y212612D01*
X416033Y210773D01*
X416925Y207458D01*
X417787Y204135D01*
X418621Y200805D01*
X419161Y198581D01*
X419601Y196726D01*
X420033Y194868D01*
X420456Y193008D01*
X420870Y191147D01*
X421277Y189283D01*
X422670Y182560D01*
X423255Y179565D01*
X423818Y176566D01*
X424359Y173563D01*
X424359D01*
X416180Y163013D02*
X416665Y163077D01*
X416180Y163013D02*
X416180Y163013D01*
X408397Y153161D02*
Y153161D01*
Y153161D02*
X408461Y152551D01*
X408493Y152247D01*
X408526Y151942D01*
X408559Y151637D01*
X408592Y151333D01*
X408626Y151028D01*
X408661Y150724D01*
X408696Y150419D01*
X408731Y150115D01*
X408768Y149811D01*
X408805Y149507D01*
X408843Y149202D01*
X408882Y148898D01*
X408922Y148595D01*
X408963Y148291D01*
X409004Y147987D01*
X409047Y147684D01*
X409089Y147380D01*
X409131Y147077D01*
X409172Y146773D01*
X409212Y146469D01*
X409250Y146165D01*
X409286Y145861D01*
X409322Y145557D01*
X409356Y145252D01*
X409389Y144948D01*
X409422Y144643D01*
X409454Y144338D01*
X409486Y144033D01*
X409517Y143728D01*
X409549Y143424D01*
X409581Y143119D01*
X409613Y142814D01*
X409646Y142509D01*
X409680Y142205D01*
X409715Y141900D01*
X409751Y141596D01*
X409788Y141292D01*
X409825Y140987D01*
X409863Y140683D01*
X409901Y140379D01*
X409939Y140075D01*
X409977Y139771D01*
X410015Y139467D01*
X410053Y139163D01*
X410091Y138858D01*
X410127Y138554D01*
X410163Y138250D01*
X410198Y137945D01*
X410232Y137641D01*
X410265Y137336D01*
X410296Y137031D01*
X410326Y136727D01*
X410354Y136421D01*
X410381Y136116D01*
X410407Y135811D01*
X410434Y135506D01*
X410461Y135200D01*
X410490Y134895D01*
X410522Y134590D01*
X410555Y134286D01*
X410589Y133981D01*
X410624Y133677D01*
X410658Y133372D01*
X410690Y133068D01*
X410721Y132763D01*
X410750Y132458D01*
X410777Y132153D01*
X410804Y131847D01*
X410829Y131542D01*
X410854Y131236D01*
X410878Y130931D01*
X410901Y130625D01*
X410924Y130320D01*
X410948Y130014D01*
X410971Y129708D01*
X410995Y129403D01*
X411019Y129097D01*
X411044Y128792D01*
X411070Y128486D01*
X411097Y128181D01*
X411124Y127876D01*
X411153Y127571D01*
X411182Y127266D01*
X411212Y126961D01*
X411241Y126656D01*
X411271Y126351D01*
X411301Y126046D01*
X411331Y125740D01*
X411361Y125435D01*
X411390Y125130D01*
X411418Y124825D01*
X411446Y124520D01*
X411472Y124215D01*
X411498Y123910D01*
X411522Y123604D01*
X411545Y123299D01*
X411567Y122993D01*
X411587Y122687D01*
X411606Y122381D01*
X411624Y122075D01*
X411643Y121770D01*
X411663Y121464D01*
X411684Y121158D01*
X411707Y120852D01*
X411732Y120547D01*
X411758Y120242D01*
X411785Y119936D01*
X411811Y119631D01*
X411836Y119326D01*
X411859Y119020D01*
X411881Y118715D01*
X411902Y118409D01*
X411922Y118103D01*
X411940Y117797D01*
X411958Y117491D01*
X411974Y117185D01*
X411991Y116879D01*
X412006Y116573D01*
X412022Y116267D01*
X412037Y115961D01*
X412052Y115655D01*
X412068Y115349D01*
X412084Y115043D01*
X412100Y114737D01*
X412117Y114431D01*
X412135Y114125D01*
X412154Y113819D01*
X412173Y113513D01*
X412193Y113207D01*
X412214Y112901D01*
X412235Y112596D01*
X412257Y112290D01*
X412279Y111984D01*
X412300Y111678D01*
X412322Y111373D01*
X412343Y111067D01*
X412364Y110761D01*
X412384Y110456D01*
X412403Y110150D01*
X412422Y109844D01*
X412439Y109538D01*
X412456Y109232D01*
X412471Y108926D01*
X412484Y108620D01*
X412496Y108314D01*
X412508Y108007D01*
X412519Y107701D01*
X412531Y107395D01*
X412544Y107089D01*
X412559Y106783D01*
X412575Y106477D01*
X412593Y106171D01*
X412612Y105865D01*
X412630Y105559D01*
X412649Y105253D01*
X412666Y104947D01*
X412681Y104641D01*
X412696Y104335D01*
X412709Y104029D01*
X412721Y103723D01*
X412733Y103416D01*
X412743Y103110D01*
X412753Y102804D01*
X412763Y102498D01*
X412772Y102191D01*
X412781Y101885D01*
X412790Y101579D01*
X412799Y101272D01*
X412808Y100966D01*
X412817Y100660D01*
X412826Y100353D01*
X412836Y100047D01*
X412847Y99741D01*
X412859Y99434D01*
X412871Y99128D01*
X412883Y98822D01*
X412896Y98516D01*
X412909Y98210D01*
X412923Y97903D01*
X412936Y97597D01*
X412950Y97291D01*
X412964Y96985D01*
X412977Y96679D01*
X412991Y96373D01*
X413004Y96067D01*
X413017Y95760D01*
X413030Y95454D01*
X413042Y95148D01*
X413054Y94842D01*
X413065Y94536D01*
X413075Y94229D01*
X413084Y93923D01*
X413093Y93617D01*
X413101Y93310D01*
X413108Y93004D01*
X413115Y92698D01*
X413120Y92391D01*
X413125Y92085D01*
X413130Y91778D01*
X413134Y91472D01*
X413138Y91166D01*
X413142Y90859D01*
X413145Y90553D01*
X413149Y90246D01*
X413153Y89940D01*
X413158Y89634D01*
X413162Y89327D01*
X413167Y89021D01*
X413171Y88714D01*
X413176Y88408D01*
X413182Y88101D01*
X413187Y87795D01*
X413193Y87489D01*
X413198Y87182D01*
X413204Y86876D01*
X413210Y86569D01*
X413216Y86263D01*
X413222Y85957D01*
X413229Y85650D01*
X413235Y85344D01*
X413241Y85038D01*
X413248Y84731D01*
X413254Y84425D01*
X413260Y84118D01*
X413267Y83812D01*
X413273Y83506D01*
X413280Y83199D01*
X413286Y82893D01*
X413292Y82586D01*
X413299Y82280D01*
X413305Y81974D01*
X413311Y81667D01*
X413317Y81361D01*
X413323Y81055D01*
X413329Y80748D01*
X413335Y80442D01*
X413340Y80135D01*
X413346Y79829D01*
X413351Y79523D01*
X413356Y79216D01*
X413362Y78910D01*
X413367Y78603D01*
X413372Y78297D01*
X413377Y77991D01*
X413382Y77684D01*
X413386Y77378D01*
X413391Y77071D01*
X413396Y76765D01*
X413401Y76459D01*
X413405Y76152D01*
X413410Y75846D01*
X413414Y75539D01*
X413419Y75233D01*
X413423Y74927D01*
X413427Y74620D01*
X413432Y74314D01*
X413436Y74007D01*
X413440Y73701D01*
X413444Y73394D01*
X413448Y73088D01*
X413452Y72782D01*
X413457Y72475D01*
X413461Y72169D01*
X413465Y71862D01*
X413469Y71556D01*
X413473Y71249D01*
X413477Y70943D01*
X413481Y70637D01*
X413485Y70330D01*
X413489Y70024D01*
X413493Y69717D01*
X413497Y69411D01*
X413501Y69105D01*
X413505Y68798D01*
X413508Y68492D01*
X413512Y68185D01*
X413516Y67879D01*
X413520Y67572D01*
X413524Y67266D01*
X413527Y66960D01*
X413531Y66653D01*
X413535Y66347D01*
X413538Y66040D01*
X413542Y65734D01*
X413545Y65427D01*
X413549Y65121D01*
X413553Y64815D01*
X413556Y64508D01*
X413559Y64202D01*
X413563Y63895D01*
X413566Y63589D01*
X413569Y63283D01*
X413573Y62976D01*
X413576Y62670D01*
X413579Y62363D01*
X413582Y62057D01*
X413585Y61750D01*
X413588Y61444D01*
X413591Y61138D01*
X413594Y60831D01*
X413597Y60525D01*
X413600Y60218D01*
X413603Y59912D01*
X413605Y59605D01*
X413608Y59299D01*
X413611Y58993D01*
X413614Y58686D01*
X413616Y58380D01*
X413619Y58073D01*
X413621Y57767D01*
X413624Y57460D01*
X413627Y57154D01*
X413629Y56848D01*
X413632Y56541D01*
X413634Y56235D01*
X413637Y55928D01*
X413639Y55622D01*
X413642Y55315D01*
X413644Y55009D01*
X413646Y54703D01*
X413649Y54396D01*
X413651Y54090D01*
X413653Y53783D01*
X413656Y53477D01*
X413658Y53170D01*
X413660Y52864D01*
X413662Y52557D01*
X413665Y52251D01*
X413667Y51944D01*
X413669Y51638D01*
X413671Y51332D01*
X413674Y51025D01*
X413676Y50719D01*
X413678Y50412D01*
X413680Y50106D01*
X413682Y49799D01*
X413684Y49493D01*
X413686Y49187D01*
X413688Y48880D01*
X413690Y48574D01*
X413692Y48267D01*
X413694Y47961D01*
X413696Y47654D01*
X413698Y47348D01*
X413699Y47042D01*
X413701Y46735D01*
X413703Y46429D01*
X413705Y46122D01*
X413707Y45816D01*
X413708Y45509D01*
X413710Y45203D01*
X413712Y44896D01*
X413713Y44590D01*
X413715Y44284D01*
X413716Y43977D01*
X413718Y43671D01*
X413719Y43364D01*
X413721Y43058D01*
X413722Y42751D01*
X413724Y42445D01*
X413725Y42139D01*
X413727Y41832D01*
X413728Y41526D01*
X413729Y41219D01*
X413731Y40913D01*
X413732Y40606D01*
X413733Y40300D01*
X413735Y39993D01*
X413736Y39687D01*
X413737Y39381D01*
X413738Y39074D01*
X413740Y38768D01*
X413741Y38461D01*
X413742Y38155D01*
X413743Y37848D01*
X413745Y37542D01*
X413746Y37235D01*
X413747Y36929D01*
X413748Y36623D01*
X413750Y36316D01*
X413751Y36010D01*
X413752Y35703D01*
X413753Y35397D01*
X413754Y35090D01*
X413755Y34784D01*
X413757Y34478D01*
X413758Y34171D01*
X413759Y33865D01*
X413760Y33558D01*
X413761Y33252D01*
X413763Y32945D01*
X413764Y32639D01*
X413765Y32332D01*
X413766Y32026D01*
X413767Y31720D01*
X413768Y31413D01*
X413769Y31107D01*
X413770Y30800D01*
X413771Y30494D01*
X413772Y30187D01*
X413773Y29881D01*
X413774Y29574D01*
X413775Y29268D01*
X413776Y28962D01*
X413776Y28655D01*
X413777Y28349D01*
X413778Y28042D01*
X413779Y27736D01*
X413779Y27429D01*
X413780Y27123D01*
X413781Y26816D01*
X413781Y26510D01*
X413782Y26203D01*
X413782Y25897D01*
X413783Y25591D01*
X413783Y25284D01*
X413784Y24978D01*
X413784Y24671D01*
X413784Y24365D01*
X413785Y24058D01*
X413785Y23752D01*
X413786Y23445D01*
X413786Y23139D01*
X413786Y22833D01*
X413786Y22526D01*
X413787Y22220D01*
X413787Y21913D01*
X413787Y21607D01*
X413787Y21300D01*
X413788Y20994D01*
X413788Y20687D01*
X413788Y20381D01*
X413788Y20075D01*
X413788Y19768D01*
X413789Y19462D01*
X413789Y19155D01*
X413789Y18849D01*
X413790Y18542D01*
X413790Y18236D01*
X413791Y17623D01*
X413791Y17317D01*
X413791Y17010D01*
X413792Y16704D01*
X413792Y16397D01*
X413792Y16091D01*
X413793Y15784D01*
X413793Y15478D01*
X413793Y15172D01*
X413794Y14865D01*
X413794Y14559D01*
X413795Y14252D01*
X413795Y13946D01*
X413795Y13639D01*
X413796Y13333D01*
X413796Y13026D01*
X413797Y12720D01*
X413797Y12414D01*
X413797Y12107D01*
X413798Y11801D01*
X413798Y11494D01*
X413798Y11188D01*
X413799Y10881D01*
X413799Y10575D01*
X413799Y10268D01*
X413799Y9962D01*
X413800Y9656D01*
X413800Y9349D01*
X413800Y9043D01*
X413800Y8736D01*
X413800Y8430D01*
X413800Y8123D01*
X413801Y7817D01*
X413801Y7510D01*
X413801Y7204D01*
X413801Y6898D01*
X413801Y6591D01*
X413801Y6285D01*
Y5672D02*
Y6285D01*
X413801Y5365D02*
X413801Y5672D01*
X413801Y5059D02*
X413801Y5365D01*
X413801Y4752D02*
X413801Y5059D01*
X413801Y4446D02*
X413801Y4752D01*
X413801Y4139D02*
X413801Y4446D01*
X413801Y3833D02*
X413801Y4139D01*
X413801Y3527D02*
X413801Y3833D01*
X413800Y3220D02*
X413801Y3527D01*
X413800Y2914D02*
X413800Y3220D01*
X413800Y2607D02*
X413800Y2914D01*
X413800Y2301D02*
X413800Y2607D01*
X413800Y1994D02*
X413800Y2301D01*
X413800Y1688D02*
X413800Y1994D01*
X413800Y1382D02*
X413800Y1688D01*
X413800Y1075D02*
X413800Y1382D01*
X413800Y769D02*
X413800Y1075D01*
X413800Y462D02*
X413800Y769D01*
X413800Y156D02*
Y462D01*
X413800Y156D02*
X413800D01*
X413800Y-457D02*
X413800D01*
X413800Y-764D01*
X413800Y-1070D01*
X413800Y-1376D01*
X413800Y-1683D01*
X413800Y-1989D01*
X413800Y-2296D01*
X413800Y-2602D01*
X413800Y-2909D01*
X413800Y-3215D01*
X413801Y-3522D01*
X413801Y-3828D01*
X413801Y-4135D01*
X413801Y-4441D01*
X413801Y-4747D01*
X413801Y-5054D01*
X413801Y-5360D01*
X413801Y-5667D01*
Y-6586D02*
Y-5667D01*
X413801Y-6892D02*
X413801Y-6586D01*
X413801Y-7199D02*
X413801Y-6892D01*
X413801Y-7505D02*
X413801Y-7199D01*
X413801Y-7812D02*
X413801Y-7505D01*
X413800Y-8118D02*
X413801Y-7812D01*
X413800Y-8425D02*
X413800Y-8118D01*
X413800Y-8731D02*
X413800Y-8425D01*
X413800Y-9038D02*
X413800Y-8731D01*
X413800Y-9344D02*
X413800Y-9038D01*
X413800Y-9650D02*
X413800Y-9344D01*
X413799Y-9957D02*
X413800Y-9650D01*
X413799Y-10263D02*
X413799Y-9957D01*
X413799Y-10570D02*
X413799Y-10263D01*
X413799Y-10876D02*
X413799Y-10570D01*
X413798Y-11183D02*
X413799Y-10876D01*
X413798Y-11489D02*
X413798Y-11183D01*
X413798Y-11796D02*
X413798Y-11489D01*
X413797Y-12102D02*
X413798Y-11796D01*
X413797Y-12408D02*
X413797Y-12102D01*
X413797Y-12715D02*
X413797Y-12408D01*
X413796Y-13021D02*
X413797Y-12715D01*
X413796Y-13328D02*
X413796Y-13021D01*
X413795Y-13634D02*
X413796Y-13328D01*
X413795Y-13941D02*
X413795Y-13634D01*
X413795Y-14247D02*
X413795Y-13941D01*
X413794Y-14554D02*
X413795Y-14247D01*
X413794Y-14860D02*
X413794Y-14554D01*
X413793Y-15166D02*
X413794Y-14860D01*
X413793Y-15473D02*
X413793Y-15166D01*
X413793Y-15779D02*
X413793Y-15473D01*
X413792Y-16086D02*
X413793Y-15779D01*
X413792Y-16392D02*
X413792Y-16086D01*
X413792Y-16699D02*
X413792Y-16392D01*
X413791Y-17005D02*
X413792Y-16699D01*
X413791Y-17312D02*
X413791Y-17005D01*
X413791Y-17618D02*
X413791Y-17312D01*
X413790Y-17924D02*
X413791Y-17618D01*
X413790Y-18537D02*
X413790Y-17924D01*
X413789Y-18844D02*
X413790Y-18537D01*
X413789Y-19150D02*
X413789Y-18844D01*
X413789Y-19457D02*
X413789Y-19150D01*
X413789Y-19763D02*
X413789Y-19457D01*
X413788Y-20070D02*
X413789Y-19763D01*
X413788Y-20376D02*
X413788Y-20070D01*
X413788Y-20682D02*
X413788Y-20376D01*
X413788Y-20989D02*
X413788Y-20682D01*
X413787Y-21295D02*
X413788Y-20989D01*
X413787Y-21602D02*
X413787Y-21295D01*
X413787Y-21908D02*
X413787Y-21602D01*
X413787Y-22215D02*
X413787Y-21908D01*
X413786Y-22521D02*
X413787Y-22215D01*
X413786Y-22828D02*
X413786Y-22521D01*
X413786Y-23134D02*
X413786Y-22828D01*
X413786Y-23440D02*
X413786Y-23134D01*
X413785Y-23747D02*
X413786Y-23440D01*
X413785Y-24053D02*
X413785Y-23747D01*
X413784Y-24360D02*
X413785Y-24053D01*
X413784Y-24666D02*
X413784Y-24360D01*
X413784Y-24973D02*
X413784Y-24666D01*
X413783Y-25279D02*
X413784Y-24973D01*
X413783Y-25586D02*
X413783Y-25279D01*
X413782Y-25892D02*
X413783Y-25586D01*
X413782Y-26198D02*
X413782Y-25892D01*
X413781Y-26505D02*
X413782Y-26198D01*
X413781Y-26811D02*
X413781Y-26505D01*
X413780Y-27118D02*
X413781Y-26811D01*
X413779Y-27424D02*
X413780Y-27118D01*
X413779Y-27731D02*
X413779Y-27424D01*
X413778Y-28037D02*
X413779Y-27731D01*
X413777Y-28344D02*
X413778Y-28037D01*
X413776Y-28650D02*
X413777Y-28344D01*
X413776Y-28956D02*
X413776Y-28650D01*
X413775Y-29263D02*
X413776Y-28956D01*
X413774Y-29569D02*
X413775Y-29263D01*
X413773Y-29876D02*
X413774Y-29569D01*
X413772Y-30182D02*
X413773Y-29876D01*
X413771Y-30489D02*
X413772Y-30182D01*
X413770Y-30795D02*
X413771Y-30489D01*
X413769Y-31102D02*
X413770Y-30795D01*
X413768Y-31408D02*
X413769Y-31102D01*
X413767Y-31714D02*
X413768Y-31408D01*
X413766Y-32021D02*
X413767Y-31714D01*
X413765Y-32327D02*
X413766Y-32021D01*
X413764Y-32634D02*
X413765Y-32327D01*
X413763Y-32940D02*
X413764Y-32634D01*
X413761Y-33247D02*
X413763Y-32940D01*
X413760Y-33553D02*
X413761Y-33247D01*
X413759Y-33860D02*
X413760Y-33553D01*
X413758Y-34166D02*
X413759Y-33860D01*
X413757Y-34472D02*
X413758Y-34166D01*
X413755Y-34779D02*
X413757Y-34472D01*
X413754Y-35085D02*
X413755Y-34779D01*
X413753Y-35392D02*
X413754Y-35085D01*
X413752Y-35698D02*
X413753Y-35392D01*
X413751Y-36005D02*
X413752Y-35698D01*
X413750Y-36311D02*
X413751Y-36005D01*
X413748Y-36618D02*
X413750Y-36311D01*
X413747Y-36924D02*
X413748Y-36618D01*
X413746Y-37230D02*
X413747Y-36924D01*
X413745Y-37537D02*
X413746Y-37230D01*
X413743Y-37843D02*
X413745Y-37537D01*
X413742Y-38150D02*
X413743Y-37843D01*
X413741Y-38456D02*
X413742Y-38150D01*
X413740Y-38763D02*
X413741Y-38456D01*
X413738Y-39069D02*
X413740Y-38763D01*
X413737Y-39376D02*
X413738Y-39069D01*
X413736Y-39682D02*
X413737Y-39376D01*
X413735Y-39988D02*
X413736Y-39682D01*
X413733Y-40295D02*
X413735Y-39988D01*
X413732Y-40601D02*
X413733Y-40295D01*
X413731Y-40908D02*
X413732Y-40601D01*
X413729Y-41214D02*
X413731Y-40908D01*
X413728Y-41521D02*
X413729Y-41214D01*
X413727Y-41827D02*
X413728Y-41521D01*
X413725Y-42133D02*
X413727Y-41827D01*
X413724Y-42440D02*
X413725Y-42133D01*
X413722Y-42746D02*
X413724Y-42440D01*
X413721Y-43053D02*
X413722Y-42746D01*
X413719Y-43359D02*
X413721Y-43053D01*
X413718Y-43666D02*
X413719Y-43359D01*
X413716Y-43972D02*
X413718Y-43666D01*
X413715Y-44278D02*
X413716Y-43972D01*
X413713Y-44585D02*
X413715Y-44278D01*
X413712Y-44891D02*
X413713Y-44585D01*
X413710Y-45198D02*
X413712Y-44891D01*
X413708Y-45504D02*
X413710Y-45198D01*
X413707Y-45811D02*
X413708Y-45504D01*
X413705Y-46117D02*
X413707Y-45811D01*
X413703Y-46424D02*
X413705Y-46117D01*
X413701Y-46730D02*
X413703Y-46424D01*
X413699Y-47036D02*
X413701Y-46730D01*
X413698Y-47343D02*
X413699Y-47036D01*
X413696Y-47649D02*
X413698Y-47343D01*
X413694Y-47956D02*
X413696Y-47649D01*
X413692Y-48262D02*
X413694Y-47956D01*
X413690Y-48569D02*
X413692Y-48262D01*
X413688Y-48875D02*
X413690Y-48569D01*
X413686Y-49182D02*
X413688Y-48875D01*
X413684Y-49488D02*
X413686Y-49182D01*
X413682Y-49795D02*
X413684Y-49488D01*
X413680Y-50101D02*
X413682Y-49795D01*
X413678Y-50407D02*
X413680Y-50101D01*
X413676Y-50714D02*
X413678Y-50407D01*
X413674Y-51020D02*
X413676Y-50714D01*
X413671Y-51327D02*
X413674Y-51020D01*
X413669Y-51633D02*
X413671Y-51327D01*
X413667Y-51940D02*
X413669Y-51633D01*
X413665Y-52246D02*
X413667Y-51940D01*
X413663Y-52552D02*
X413665Y-52246D01*
X413660Y-52859D02*
X413663Y-52552D01*
X413658Y-53165D02*
X413660Y-52859D01*
X413656Y-53472D02*
X413658Y-53165D01*
X413653Y-53778D02*
X413656Y-53472D01*
X413651Y-54085D02*
X413653Y-53778D01*
X413649Y-54391D02*
X413651Y-54085D01*
X413646Y-54697D02*
X413649Y-54391D01*
X413644Y-55004D02*
X413646Y-54697D01*
X413642Y-55310D02*
X413644Y-55004D01*
X413639Y-55617D02*
X413642Y-55310D01*
X413637Y-55923D02*
X413639Y-55617D01*
X413634Y-56230D02*
X413637Y-55923D01*
X413632Y-56536D02*
X413634Y-56230D01*
X413629Y-56842D02*
X413632Y-56536D01*
X413627Y-57149D02*
X413629Y-56842D01*
X413624Y-57455D02*
X413627Y-57149D01*
X413621Y-57762D02*
X413624Y-57455D01*
X413619Y-58068D02*
X413621Y-57762D01*
X413616Y-58375D02*
X413619Y-58068D01*
X413613Y-58681D02*
X413616Y-58375D01*
X413611Y-58987D02*
X413613Y-58681D01*
X413608Y-59294D02*
X413611Y-58987D01*
X413605Y-59600D02*
X413608Y-59294D01*
X413602Y-59907D02*
X413605Y-59600D01*
X413600Y-60213D02*
X413602Y-59907D01*
X413597Y-60520D02*
X413600Y-60213D01*
X413594Y-60826D02*
X413597Y-60520D01*
X413591Y-61132D02*
X413594Y-60826D01*
X413588Y-61439D02*
X413591Y-61132D01*
X413585Y-61745D02*
X413588Y-61439D01*
X413582Y-62052D02*
X413585Y-61745D01*
X413579Y-62358D02*
X413582Y-62052D01*
X413576Y-62665D02*
X413579Y-62358D01*
X413573Y-62971D02*
X413576Y-62665D01*
X413569Y-63278D02*
X413573Y-62971D01*
X413546Y-65423D02*
X413569Y-63278D01*
X413525Y-67261D02*
X413546Y-65423D01*
X413502Y-69100D02*
X413525Y-67261D01*
X413478Y-70938D02*
X413502Y-69100D01*
X413456Y-72470D02*
X413478Y-70938D01*
X413452Y-72777D02*
X413456Y-72470D01*
X413448Y-73083D02*
X413452Y-72777D01*
X413443Y-73389D02*
X413448Y-73083D01*
X413439Y-73696D02*
X413443Y-73389D01*
X413434Y-74002D02*
X413439Y-73696D01*
X413430Y-74309D02*
X413434Y-74002D01*
X413425Y-74615D02*
X413430Y-74309D01*
X413421Y-74921D02*
X413425Y-74615D01*
X413416Y-75228D02*
X413421Y-74921D01*
X413411Y-75534D02*
X413416Y-75228D01*
X413407Y-75841D02*
X413411Y-75534D01*
X413402Y-76147D02*
X413407Y-75841D01*
X413397Y-76453D02*
X413402Y-76147D01*
X413393Y-76760D02*
X413397Y-76453D01*
X413388Y-77066D02*
X413393Y-76760D01*
X413383Y-77373D02*
X413388Y-77066D01*
X413378Y-77679D02*
X413383Y-77373D01*
X413373Y-77986D02*
X413378Y-77679D01*
X413368Y-78292D02*
X413373Y-77986D01*
X413363Y-78598D02*
X413368Y-78292D01*
X413358Y-78905D02*
X413363Y-78598D01*
X413353Y-79211D02*
X413358Y-78905D01*
X413348Y-79518D02*
X413353Y-79211D01*
X413343Y-79824D02*
X413348Y-79518D01*
X413338Y-80130D02*
X413343Y-79824D01*
X413333Y-80437D02*
X413338Y-80130D01*
X413328Y-80743D02*
X413333Y-80437D01*
X413323Y-81050D02*
X413328Y-80743D01*
X413317Y-81356D02*
X413323Y-81050D01*
X413312Y-81662D02*
X413317Y-81356D01*
X413307Y-81969D02*
X413312Y-81662D01*
X413302Y-82275D02*
X413307Y-81969D01*
X413297Y-82582D02*
X413302Y-82275D01*
X413291Y-82888D02*
X413297Y-82582D01*
X413286Y-83194D02*
X413291Y-82888D01*
X413280Y-83501D02*
X413286Y-83194D01*
X413275Y-83807D02*
X413280Y-83501D01*
X413269Y-84114D02*
X413275Y-83807D01*
X413264Y-84420D02*
X413269Y-84114D01*
X413258Y-84726D02*
X413264Y-84420D01*
X413253Y-85033D02*
X413258Y-84726D01*
X413247Y-85339D02*
X413253Y-85033D01*
X413241Y-85646D02*
X413247Y-85339D01*
X413236Y-85952D02*
X413241Y-85646D01*
X413230Y-86258D02*
X413236Y-85952D01*
X413224Y-86565D02*
X413230Y-86258D01*
X413218Y-86871D02*
X413224Y-86565D01*
X413212Y-87177D02*
X413218Y-86871D01*
X413206Y-87484D02*
X413212Y-87177D01*
X413200Y-87790D02*
X413206Y-87484D01*
X413194Y-88097D02*
X413200Y-87790D01*
X413187Y-88403D02*
X413194Y-88097D01*
X413181Y-88709D02*
X413187Y-88403D01*
X413175Y-89016D02*
X413181Y-88709D01*
X413168Y-89322D02*
X413175Y-89016D01*
X413162Y-89628D02*
X413168Y-89322D01*
X413156Y-89935D02*
X413162Y-89628D01*
X413149Y-90241D02*
X413156Y-89935D01*
X413142Y-90548D02*
X413149Y-90241D01*
X413135Y-90854D02*
X413142Y-90548D01*
X413129Y-91160D02*
X413135Y-90854D01*
X413122Y-91467D02*
X413129Y-91160D01*
X413115Y-91773D02*
X413122Y-91467D01*
X413107Y-92079D02*
X413115Y-91773D01*
X413100Y-92386D02*
X413107Y-92079D01*
X413093Y-92692D02*
X413100Y-92386D01*
X413085Y-92999D02*
X413093Y-92692D01*
X413078Y-93305D02*
X413085Y-92999D01*
X413070Y-93611D02*
X413078Y-93305D01*
X413062Y-93918D02*
X413070Y-93611D01*
X413028Y-95143D02*
X413062Y-93918D01*
X412318Y-111676D02*
X412533Y-107697D01*
X412153Y-114429D02*
X412318Y-111676D01*
X411975Y-117181D02*
X412153Y-114429D01*
X411783Y-119932D02*
X411975Y-117181D01*
X411580Y-122683D02*
X411783Y-119932D01*
X411509Y-123600D02*
X411580Y-122683D01*
X411461Y-124211D02*
X411509Y-123600D01*
X411412Y-124822D02*
X411461Y-124211D01*
X411363Y-125433D02*
X411412Y-124822D01*
X411313Y-126043D02*
X411363Y-125433D01*
X411263Y-126654D02*
X411313Y-126043D01*
X411211Y-127265D02*
X411263Y-126654D01*
X411159Y-127876D02*
X411211Y-127265D01*
X411107Y-128486D02*
X411159Y-127876D01*
X411054Y-129097D02*
X411107Y-128486D01*
X410999Y-129707D02*
X411054Y-129097D01*
X410945Y-130318D02*
X410999Y-129707D01*
X410889Y-130928D02*
X410945Y-130318D01*
X410833Y-131539D02*
X410889Y-130928D01*
X410776Y-132149D02*
X410833Y-131539D01*
X410719Y-132759D02*
X410776Y-132149D01*
X410660Y-133369D02*
X410719Y-132759D01*
X410601Y-133979D02*
X410660Y-133369D01*
X410541Y-134589D02*
X410601Y-133979D01*
X410450Y-135504D02*
X410541Y-134589D01*
X410357Y-136419D02*
X410450Y-135504D01*
X410357Y-136419D02*
X410357D01*
X408377Y-152847D02*
X408377D01*
X416122Y-163006D02*
X416684Y-163079D01*
X424236Y-174350D02*
X424372Y-173599D01*
X424167Y-174725D02*
X424236Y-174350D01*
X424098Y-175100D02*
X424167Y-174725D01*
X424029Y-175475D02*
X424098Y-175100D01*
X423959Y-175850D02*
X424029Y-175475D01*
X423889Y-176225D02*
X423959Y-175850D01*
X423819Y-176600D02*
X423889Y-176225D01*
X423748Y-176975D02*
X423819Y-176600D01*
X423677Y-177350D02*
X423748Y-176975D01*
X423606Y-177725D02*
X423677Y-177350D01*
X423535Y-178099D02*
X423606Y-177725D01*
X423463Y-178474D02*
X423535Y-178099D01*
X423391Y-178849D02*
X423463Y-178474D01*
X423319Y-179223D02*
X423391Y-178849D01*
X423247Y-179598D02*
X423319Y-179223D01*
X423174Y-179972D02*
X423247Y-179598D01*
X423101Y-180347D02*
X423174Y-179972D01*
X423028Y-180721D02*
X423101Y-180347D01*
X422955Y-181096D02*
X423028Y-180721D01*
X422881Y-181470D02*
X422955Y-181096D01*
X422808Y-181844D02*
X422881Y-181470D01*
X422733Y-182218D02*
X422808Y-181844D01*
X422659Y-182593D02*
X422733Y-182218D01*
X422584Y-182967D02*
X422659Y-182593D01*
X422509Y-183341D02*
X422584Y-182967D01*
X422434Y-183715D02*
X422509Y-183341D01*
X422359Y-184088D02*
X422434Y-183715D01*
X422283Y-184462D02*
X422359Y-184088D01*
X422207Y-184836D02*
X422283Y-184462D01*
X422131Y-185210D02*
X422207Y-184836D01*
X422054Y-185583D02*
X422131Y-185210D01*
X421977Y-185957D02*
X422054Y-185583D01*
X421900Y-186331D02*
X421977Y-185957D01*
X421822Y-186704D02*
X421900Y-186331D01*
X421744Y-187078D02*
X421822Y-186704D01*
X421666Y-187451D02*
X421744Y-187078D01*
X421588Y-187824D02*
X421666Y-187451D01*
X421509Y-188197D02*
X421588Y-187824D01*
X421430Y-188570D02*
X421509Y-188197D01*
X421350Y-188943D02*
X421430Y-188570D01*
X421270Y-189316D02*
X421350Y-188943D01*
X421190Y-189689D02*
X421270Y-189316D01*
X421110Y-190062D02*
X421190Y-189689D01*
X421029Y-190435D02*
X421110Y-190062D01*
X420947Y-190807D02*
X421029Y-190435D01*
X419597Y-196759D02*
X420947Y-190807D01*
X418888Y-199727D02*
X419597Y-196759D01*
X418156Y-202689D02*
X418888Y-199727D01*
X417592Y-204908D02*
X418156Y-202689D01*
X417209Y-206385D02*
X417592Y-204908D01*
X416820Y-207860D02*
X417209Y-206385D01*
X416426Y-209334D02*
X416820Y-207860D01*
X416025Y-210806D02*
X416426Y-209334D01*
X415619Y-212277D02*
X416025Y-210806D01*
X415207Y-213746D02*
X415619Y-212277D01*
X410989Y-227612D02*
X411341Y-226524D01*
X410632Y-228700D02*
X410989Y-227612D01*
X410272Y-229786D02*
X410632Y-228700D01*
X409909Y-230871D02*
X410272Y-229786D01*
X409542Y-231955D02*
X409909Y-230871D01*
X409171Y-233038D02*
X409542Y-231955D01*
X408797Y-234119D02*
X409171Y-233038D01*
X408419Y-235200D02*
X408797Y-234119D01*
X408038Y-236278D02*
X408419Y-235200D01*
X406870Y-239506D02*
X408038Y-236278D01*
X406473Y-240580D02*
X406870Y-239506D01*
X406073Y-241652D02*
X406473Y-240580D01*
X405669Y-242722D02*
X406073Y-241652D01*
X405261Y-243792D02*
X405669Y-242722D01*
X404850Y-244860D02*
X405261Y-243792D01*
X404435Y-245926D02*
X404850Y-244860D01*
X404017Y-246991D02*
X404435Y-245926D01*
X403312Y-248764D02*
X404017Y-246991D01*
X403027Y-249471D02*
X403312Y-248764D01*
X402741Y-250179D02*
X403027Y-249471D01*
X402454Y-250885D02*
X402741Y-250179D01*
X402164Y-251591D02*
X402454Y-250885D01*
X401874Y-252297D02*
X402164Y-251591D01*
X401581Y-253001D02*
X401874Y-252297D01*
X401287Y-253705D02*
X401581Y-253001D01*
X400991Y-254408D02*
X401287Y-253705D01*
X400693Y-255111D02*
X400991Y-254408D01*
X400394Y-255812D02*
X400693Y-255111D01*
X400093Y-256513D02*
X400394Y-255812D01*
X399790Y-257213D02*
X400093Y-256513D01*
X399485Y-257913D02*
X399790Y-257213D01*
X398560Y-260006D02*
X399485Y-257913D01*
X397935Y-261398D02*
X398560Y-260006D01*
X397302Y-262786D02*
X397935Y-261398D01*
X396662Y-264171D02*
X397302Y-262786D01*
X396015Y-265553D02*
X396662Y-264171D01*
X395362Y-266932D02*
X396015Y-265553D01*
X393529Y-270707D02*
X395362Y-266932D01*
X392679Y-272414D02*
X393529Y-270707D01*
X391819Y-274116D02*
X392679Y-272414D01*
X390948Y-275813D02*
X391819Y-274116D01*
X390066Y-277504D02*
X390948Y-275813D01*
X388993Y-279525D02*
X390066Y-277504D01*
X387904Y-281538D02*
X388993Y-279525D01*
X386799Y-283543D02*
X387904Y-281538D01*
X385677Y-285538D02*
X386799Y-283543D01*
X385677Y-285538D02*
X385677D01*
X378612Y-297311D02*
X378612D01*
X377792Y-298598D02*
X378612Y-297311D01*
X376964Y-299880D02*
X377792Y-298598D01*
X376129Y-301157D02*
X376964Y-299880D01*
X375287Y-302430D02*
X376129Y-301157D01*
X374438Y-303697D02*
X375287Y-302430D01*
X372717Y-306217D02*
X374438Y-303697D01*
X371846Y-307470D02*
X372717Y-306217D01*
X370967Y-308717D02*
X371846Y-307470D01*
X370304Y-309650D02*
X370967Y-308717D01*
X369636Y-310579D02*
X370304Y-309650D01*
X368965Y-311506D02*
X369636Y-310579D01*
X368290Y-312430D02*
X368965Y-311506D01*
X367157Y-313964D02*
X368290Y-312430D01*
X366472Y-314881D02*
X367157Y-313964D01*
X365783Y-315794D02*
X366472Y-314881D01*
X365090Y-316705D02*
X365783Y-315794D01*
X364393Y-317613D02*
X365090Y-316705D01*
X363693Y-318518D02*
X364393Y-317613D01*
X362989Y-319420D02*
X363693Y-318518D01*
X362280Y-320319D02*
X362989Y-319420D01*
X361091Y-321810D02*
X362280Y-320319D01*
X358922Y-324470D02*
X361091Y-321810D01*
X356716Y-327102D02*
X358922Y-324470D01*
X354224Y-329989D02*
X356716Y-327102D01*
X353468Y-330848D02*
X354224Y-329989D01*
X352707Y-331703D02*
X353468Y-330848D01*
X351944Y-332556D02*
X352707Y-331703D01*
X351176Y-333404D02*
X351944Y-332556D01*
X350405Y-334250D02*
X351176Y-333404D01*
X349630Y-335092D02*
X350405Y-334250D01*
X348852Y-335931D02*
X349630Y-335092D01*
X347808Y-337044D02*
X348852Y-335931D01*
X347285Y-337599D02*
X347808Y-337044D01*
X346759Y-338152D02*
X347285Y-337599D01*
X346232Y-338704D02*
X346759Y-338152D01*
X345704Y-339254D02*
X346232Y-338704D01*
X345173Y-339802D02*
X345704Y-339254D01*
X344642Y-340349D02*
X345173Y-339802D01*
X344108Y-340895D02*
X344642Y-340349D01*
X343573Y-341438D02*
X344108Y-340895D01*
X343036Y-341981D02*
X343573Y-341438D01*
X342498Y-342521D02*
X343036Y-341981D01*
X341958Y-343060D02*
X342498Y-342521D01*
X340327Y-344666D02*
X341958Y-343060D01*
X339507Y-345463D02*
X340327Y-344666D01*
X338682Y-346257D02*
X339507Y-345463D01*
X337854Y-347047D02*
X338682Y-346257D01*
X337023Y-347833D02*
X337854Y-347047D01*
X336187Y-348615D02*
X337023Y-347833D01*
X335349Y-349394D02*
X336187Y-348615D01*
X334507Y-350169D02*
X335349Y-349394D01*
X332246Y-352219D02*
X334507Y-350169D01*
X330535Y-353738D02*
X332246Y-352219D01*
X328810Y-355243D02*
X330535Y-353738D01*
X327072Y-356733D02*
X328810Y-355243D01*
X323853Y-359423D02*
X327072Y-356733D01*
X321484Y-361347D02*
X323853Y-359423D01*
X319093Y-363243D02*
X321484Y-361347D01*
X319093Y-363243D02*
X319093D01*
X301766Y-375727D02*
X301766D01*
X300810Y-376356D02*
X301766Y-375727D01*
X299851Y-376981D02*
X300810Y-376356D01*
X298890Y-377602D02*
X299851Y-376981D01*
X297927Y-378219D02*
X298890Y-377602D01*
X296960Y-378832D02*
X297927Y-378219D01*
X295991Y-379441D02*
X296960Y-378832D01*
X295020Y-380046D02*
X295991Y-379441D01*
X294047Y-380648D02*
X295020Y-380046D01*
X292092Y-381839D02*
X294047Y-380648D01*
X291112Y-382429D02*
X292092Y-381839D01*
X290129Y-383015D02*
X291112Y-382429D01*
X289144Y-383597D02*
X290129Y-383015D01*
X288156Y-384175D02*
X289144Y-383597D01*
X287166Y-384749D02*
X288156Y-384175D01*
X286173Y-385318D02*
X287166Y-384749D01*
X285179Y-385884D02*
X286173Y-385318D01*
X283182Y-387002D02*
X285179Y-385884D01*
X282514Y-387371D02*
X283182Y-387002D01*
X281845Y-387738D02*
X282514Y-387371D01*
X281176Y-388104D02*
X281845Y-387738D01*
X280505Y-388467D02*
X281176Y-388104D01*
X279833Y-388829D02*
X280505Y-388467D01*
X279161Y-389189D02*
X279833Y-388829D01*
X278487Y-389547D02*
X279161Y-389189D01*
X277812Y-389904D02*
X278487Y-389547D01*
X277137Y-390258D02*
X277812Y-389904D01*
X276461Y-390611D02*
X277137Y-390258D01*
X275784Y-390963D02*
X276461Y-390611D01*
X275105Y-391312D02*
X275784Y-390963D01*
X273407Y-392179D02*
X275105Y-391312D01*
X271702Y-393036D02*
X273407Y-392179D01*
X269993Y-393881D02*
X271702Y-393036D01*
X268278Y-394716D02*
X269993Y-393881D01*
X266558Y-395541D02*
X268278Y-394716D01*
X263103Y-397156D02*
X266558Y-395541D01*
X261715Y-397789D02*
X263103Y-397156D01*
X260324Y-398416D02*
X261715Y-397789D01*
X258929Y-399036D02*
X260324Y-398416D01*
X257532Y-399649D02*
X258929Y-399036D01*
X256132Y-400255D02*
X257532Y-399649D01*
X252619Y-401741D02*
X256132Y-400255D01*
X252619Y-401741D02*
Y-401741D01*
X244118Y-405137D02*
X246252Y-404311D01*
X243048Y-405545D02*
X244118Y-405137D01*
X241978Y-405949D02*
X243048Y-405545D01*
X240906Y-406349D02*
X241978Y-405949D01*
X239832Y-406746D02*
X240906Y-406349D01*
X238758Y-407139D02*
X239832Y-406746D01*
X237682Y-407529D02*
X238758Y-407139D01*
X236604Y-407915D02*
X237682Y-407529D01*
X235526Y-408297D02*
X236604Y-407915D01*
X234446Y-408676D02*
X235526Y-408297D01*
X230477Y-410037D02*
X234446Y-408676D01*
X226492Y-411350D02*
X230477Y-410037D01*
X226492Y-411350D02*
Y-411350D01*
X218111Y-413944D02*
X219939Y-413398D01*
X216281Y-414481D02*
X218111Y-413944D01*
X214448Y-415008D02*
X216281Y-414481D01*
X212612Y-415525D02*
X214448Y-415008D01*
X210774Y-416033D02*
X212612Y-415525D01*
X209302Y-416433D02*
X210774Y-416033D01*
X207827Y-416827D02*
X209302Y-416433D01*
X206352Y-417215D02*
X207827Y-416827D01*
X204875Y-417597D02*
X206352Y-417215D01*
X203396Y-417973D02*
X204875Y-417597D01*
X201916Y-418344D02*
X203396Y-417973D01*
X200435Y-418709D02*
X201916Y-418344D01*
X198210Y-419247D02*
X200435Y-418709D01*
X195611Y-419858D02*
X198210Y-419247D01*
X193008Y-420453D02*
X195611Y-419858D01*
X190401Y-421032D02*
X193008Y-420453D01*
X190401Y-421032D02*
X190401D01*
X181437Y-422890D02*
X181438D01*
X178066Y-423538D02*
X181438Y-422890D01*
X174690Y-424157D02*
X178066Y-423538D01*
X173563Y-424357D02*
X174690Y-424157D01*
X163077Y-416663D02*
Y-416663D01*
X163008Y-416136D02*
X163077Y-416663D01*
X163008Y-416136D02*
Y-416136D01*
X152442Y-408436D02*
X153051Y-408365D01*
X152138Y-408472D02*
X152442Y-408436D01*
X151834Y-408508D02*
X152138Y-408472D01*
X151529Y-408545D02*
X151834Y-408508D01*
X151225Y-408582D02*
X151529Y-408545D01*
X150921Y-408619D02*
X151225Y-408582D01*
X150617Y-408657D02*
X150921Y-408619D01*
X150313Y-408695D02*
X150617Y-408657D01*
X150009Y-408733D02*
X150313Y-408695D01*
X149706Y-408773D02*
X150009Y-408733D01*
X149402Y-408812D02*
X149706Y-408773D01*
X149098Y-408853D02*
X149402Y-408812D01*
X148794Y-408893D02*
X149098Y-408853D01*
X148491Y-408935D02*
X148794Y-408893D01*
X148188Y-408977D02*
X148491Y-408935D01*
X147884Y-409019D02*
X148188Y-408977D01*
X147581Y-409062D02*
X147884Y-409019D01*
X147277Y-409104D02*
X147581Y-409062D01*
X146974Y-409146D02*
X147277Y-409104D01*
X146670Y-409186D02*
X146974Y-409146D01*
X146366Y-409225D02*
X146670Y-409186D01*
X146062Y-409262D02*
X146366Y-409225D01*
X145758Y-409298D02*
X146062Y-409262D01*
X145454Y-409333D02*
X145758Y-409298D01*
X145149Y-409367D02*
X145454Y-409333D01*
X144845Y-409400D02*
X145149Y-409367D01*
X144540Y-409433D02*
X144845Y-409400D01*
X144236Y-409465D02*
X144540Y-409433D01*
X143931Y-409497D02*
X144236Y-409465D01*
X143626Y-409529D02*
X143931Y-409497D01*
X143321Y-409560D02*
X143626Y-409529D01*
X143017Y-409592D02*
X143321Y-409560D01*
X142712Y-409625D02*
X143017Y-409592D01*
X142408Y-409658D02*
X142712Y-409625D01*
X142103Y-409692D02*
X142408Y-409658D01*
X141799Y-409727D02*
X142103Y-409692D01*
X141494Y-409762D02*
X141799Y-409727D01*
X141190Y-409799D02*
X141494Y-409762D01*
X140886Y-409835D02*
X141190Y-409799D01*
X140582Y-409873D02*
X140886Y-409835D01*
X140278Y-409910D02*
X140582Y-409873D01*
X139974Y-409948D02*
X140278Y-409910D01*
X139670Y-409986D02*
X139974Y-409948D01*
X139366Y-410023D02*
X139670Y-409986D01*
X139061Y-410061D02*
X139366Y-410023D01*
X138757Y-410098D02*
X139061Y-410061D01*
X138453Y-410134D02*
X138757Y-410098D01*
X138149Y-410170D02*
X138453Y-410134D01*
X137845Y-410205D02*
X138149Y-410170D01*
X137540Y-410239D02*
X137845Y-410205D01*
X137236Y-410272D02*
X137540Y-410239D01*
X136931Y-410304D02*
X137236Y-410272D01*
X136627Y-410335D02*
X136931Y-410304D01*
X136322Y-410365D02*
X136627Y-410335D01*
X136017Y-410393D02*
X136322Y-410365D01*
X135711Y-410421D02*
X136017Y-410393D01*
X135406Y-410448D02*
X135711Y-410421D01*
X135101Y-410474D02*
X135406Y-410448D01*
X134796Y-410500D02*
X135101Y-410474D01*
X134491Y-410527D02*
X134796Y-410500D01*
X134185Y-410553D02*
X134491Y-410527D01*
X133880Y-410579D02*
X134185Y-410553D01*
X133575Y-410606D02*
X133880Y-410579D01*
X133270Y-410633D02*
X133575Y-410606D01*
X132965Y-410659D02*
X133270Y-410633D01*
X132660Y-410686D02*
X132965Y-410659D01*
X132354Y-410713D02*
X132660Y-410686D01*
X132049Y-410741D02*
X132354Y-410713D01*
X131744Y-410768D02*
X132049Y-410741D01*
X131439Y-410795D02*
X131744Y-410768D01*
X131134Y-410823D02*
X131439Y-410795D01*
X130829Y-410851D02*
X131134Y-410823D01*
X130524Y-410879D02*
X130829Y-410851D01*
X130219Y-410907D02*
X130524Y-410879D01*
X129914Y-410935D02*
X130219Y-410907D01*
X129609Y-410964D02*
X129914Y-410935D01*
X129304Y-410992D02*
X129609Y-410964D01*
X128999Y-411021D02*
X129304Y-410992D01*
X128694Y-411050D02*
X128999Y-411021D01*
X128389Y-411080D02*
X128694Y-411050D01*
X128084Y-411110D02*
X128389Y-411080D01*
X127779Y-411139D02*
X128084Y-411110D01*
X127474Y-411169D02*
X127779Y-411139D01*
X127169Y-411199D02*
X127474Y-411169D01*
X126864Y-411228D02*
X127169Y-411199D01*
X126559Y-411258D02*
X126864Y-411228D01*
X126254Y-411287D02*
X126559Y-411258D01*
X125949Y-411316D02*
X126254Y-411287D01*
X125644Y-411345D02*
X125949Y-411316D01*
X125339Y-411373D02*
X125644Y-411345D01*
X125034Y-411401D02*
X125339Y-411373D01*
X124729Y-411428D02*
X125034Y-411401D01*
X124424Y-411454D02*
X124729Y-411428D01*
X124118Y-411480D02*
X124424Y-411454D01*
X123813Y-411505D02*
X124118Y-411480D01*
X123508Y-411529D02*
X123813Y-411505D01*
X123202Y-411552D02*
X123508Y-411529D01*
X122897Y-411574D02*
X123202Y-411552D01*
X122591Y-411595D02*
X122897Y-411574D01*
X122285Y-411615D02*
X122591Y-411595D01*
X121980Y-411634D02*
X122285Y-411615D01*
X121674Y-411654D02*
X121980Y-411634D01*
X121368Y-411672D02*
X121674Y-411654D01*
X121062Y-411691D02*
X121368Y-411672D01*
X120757Y-411709D02*
X121062Y-411691D01*
X120451Y-411728D02*
X120757Y-411709D01*
X120145Y-411746D02*
X120451Y-411728D01*
X119839Y-411765D02*
X120145Y-411746D01*
X119534Y-411784D02*
X119839Y-411765D01*
X119228Y-411803D02*
X119534Y-411784D01*
X118922Y-411821D02*
X119228Y-411803D01*
X118616Y-411840D02*
X118922Y-411821D01*
X118310Y-411859D02*
X118616Y-411840D01*
X118005Y-411879D02*
X118310Y-411859D01*
X117699Y-411898D02*
X118005Y-411879D01*
X117393Y-411917D02*
X117699Y-411898D01*
X117088Y-411937D02*
X117393Y-411917D01*
X116782Y-411956D02*
X117088Y-411937D01*
X116476Y-411976D02*
X116782Y-411956D01*
X116171Y-411996D02*
X116476Y-411976D01*
X115865Y-412016D02*
X116171Y-411996D01*
X115559Y-412036D02*
X115865Y-412016D01*
X115253Y-412057D02*
X115559Y-412036D01*
X114948Y-412077D02*
X115253Y-412057D01*
X114642Y-412098D02*
X114948Y-412077D01*
X114337Y-412119D02*
X114642Y-412098D01*
X114031Y-412140D02*
X114337Y-412119D01*
X113725Y-412162D02*
X114031Y-412140D01*
X113420Y-412183D02*
X113725Y-412162D01*
X113114Y-412205D02*
X113420Y-412183D01*
X112808Y-412226D02*
X113114Y-412205D01*
X112503Y-412248D02*
X112808Y-412226D01*
X112197Y-412269D02*
X112503Y-412248D01*
X111891Y-412291D02*
X112197Y-412269D01*
X111586Y-412312D02*
X111891Y-412291D01*
X111280Y-412332D02*
X111586Y-412312D01*
X110975Y-412352D02*
X111280Y-412332D01*
X110669Y-412372D02*
X110975Y-412352D01*
X110363Y-412391D02*
X110669Y-412372D01*
X110057Y-412409D02*
X110363Y-412391D01*
X109752Y-412427D02*
X110057Y-412409D01*
X109446Y-412444D02*
X109752Y-412427D01*
X109140Y-412460D02*
X109446Y-412444D01*
X108834Y-412475D02*
X109140Y-412460D01*
X108528Y-412489D02*
X108834Y-412475D01*
X108222Y-412502D02*
X108528Y-412489D01*
X107916Y-412514D02*
X108222Y-412502D01*
X107610Y-412526D02*
X107916Y-412514D01*
X107303Y-412538D02*
X107610Y-412526D01*
X106997Y-412549D02*
X107303Y-412538D01*
X106691Y-412560D02*
X106997Y-412549D01*
X106079Y-412584D02*
X106691Y-412560D01*
X105467Y-412607D02*
X106079Y-412584D01*
X104854Y-412631D02*
X105467Y-412607D01*
X104242Y-412656D02*
X104854Y-412631D01*
X103630Y-412681D02*
X104242Y-412656D01*
X103018Y-412706D02*
X103630Y-412681D01*
X102406Y-412732D02*
X103018Y-412706D01*
X101794Y-412758D02*
X102406Y-412732D01*
X101181Y-412785D02*
X101794Y-412758D01*
X100569Y-412812D02*
X101181Y-412785D01*
X99957Y-412839D02*
X100569Y-412812D01*
X99651Y-412853D02*
X99957Y-412839D01*
X99345Y-412867D02*
X99651Y-412853D01*
X99039Y-412881D02*
X99345Y-412867D01*
X98733Y-412895D02*
X99039Y-412881D01*
X98427Y-412909D02*
X98733Y-412895D01*
X98121Y-412923D02*
X98427Y-412909D01*
X97815Y-412936D02*
X98121Y-412923D01*
X97509Y-412950D02*
X97815Y-412936D01*
X97203Y-412963D02*
X97509Y-412950D01*
X96897Y-412976D02*
X97203Y-412963D01*
X96591Y-412989D02*
X96897Y-412976D01*
X96285Y-413002D02*
X96591Y-412989D01*
X95978Y-413014D02*
X96285Y-413002D01*
X95672Y-413026D02*
X95978Y-413014D01*
X95366Y-413037D02*
X95672Y-413026D01*
X95060Y-413048D02*
X95366Y-413037D01*
X94754Y-413059D02*
X95060Y-413048D01*
X94448Y-413069D02*
X94754Y-413059D01*
X94142Y-413078D02*
X94448Y-413069D01*
X93835Y-413087D02*
X94142Y-413078D01*
X93529Y-413095D02*
X93835Y-413087D01*
X93223Y-413103D02*
X93529Y-413095D01*
X92917Y-413110D02*
X93223Y-413103D01*
X92610Y-413116D02*
X92917Y-413110D01*
X92304Y-413122D02*
X92610Y-413116D01*
X91998Y-413127D02*
X92304Y-413122D01*
X91692Y-413131D02*
X91998Y-413127D01*
X91385Y-413135D02*
X91692Y-413131D01*
X91079Y-413139D02*
X91385Y-413135D01*
X90772Y-413143D02*
X91079Y-413139D01*
X90466Y-413147D02*
X90772Y-413143D01*
X90160Y-413150D02*
X90466Y-413147D01*
X89854Y-413154D02*
X90160Y-413150D01*
X89547Y-413159D02*
X89854Y-413154D01*
X89241Y-413163D02*
X89547Y-413159D01*
X88935Y-413168D02*
X89241Y-413163D01*
X88628Y-413173D02*
X88935Y-413168D01*
X88322Y-413178D02*
X88628Y-413173D01*
X88016Y-413183D02*
X88322Y-413178D01*
X87709Y-413189D02*
X88016Y-413183D01*
X87403Y-413194D02*
X87709Y-413189D01*
X87097Y-413200D02*
X87403Y-413194D01*
X86791Y-413206D02*
X87097Y-413200D01*
X86484Y-413212D02*
X86791Y-413206D01*
X86178Y-413218D02*
X86484Y-413212D01*
X85872Y-413224D02*
X86178Y-413218D01*
X85565Y-413230D02*
X85872Y-413224D01*
X85259Y-413236D02*
X85565Y-413230D01*
X84953Y-413243D02*
X85259Y-413236D01*
X84647Y-413249D02*
X84953Y-413243D01*
X84340Y-413256D02*
X84647Y-413249D01*
X84034Y-413262D02*
X84340Y-413256D01*
X83728Y-413269D02*
X84034Y-413262D01*
X83421Y-413275D02*
X83728Y-413269D01*
X83115Y-413281D02*
X83421Y-413275D01*
X82809Y-413288D02*
X83115Y-413281D01*
X82503Y-413294D02*
X82809Y-413288D01*
X82196Y-413300D02*
X82503Y-413294D01*
X81890Y-413307D02*
X82196Y-413300D01*
X81584Y-413313D02*
X81890Y-413307D01*
X81278Y-413319D02*
X81584Y-413313D01*
X80665Y-413330D02*
X81278Y-413319D01*
X80359Y-413336D02*
X80665Y-413330D01*
X80052Y-413342D02*
X80359Y-413336D01*
X79746Y-413347D02*
X80052Y-413342D01*
X79440Y-413353D02*
X79746Y-413347D01*
X79133Y-413358D02*
X79440Y-413353D01*
X78827Y-413363D02*
X79133Y-413358D01*
X78521Y-413368D02*
X78827Y-413363D01*
X78215Y-413373D02*
X78521Y-413368D01*
X77908Y-413378D02*
X78215Y-413373D01*
X77602Y-413383D02*
X77908Y-413378D01*
X77296Y-413388D02*
X77602Y-413383D01*
X76989Y-413393D02*
X77296Y-413388D01*
X76683Y-413397D02*
X76989Y-413393D01*
X76377Y-413402D02*
X76683Y-413397D01*
X76070Y-413406D02*
X76377Y-413402D01*
X75764Y-413411D02*
X76070Y-413406D01*
X75458Y-413415D02*
X75764Y-413411D01*
X75152Y-413420D02*
X75458Y-413415D01*
X74845Y-413424D02*
X75152Y-413420D01*
X74539Y-413428D02*
X74845Y-413424D01*
X74233Y-413433D02*
X74539Y-413428D01*
X73926Y-413437D02*
X74233Y-413433D01*
X73620Y-413441D02*
X73926Y-413437D01*
X73314Y-413445D02*
X73620Y-413441D01*
X73007Y-413449D02*
X73314Y-413445D01*
X72701Y-413454D02*
X73007Y-413449D01*
X72395Y-413458D02*
X72701Y-413454D01*
X72088Y-413462D02*
X72395Y-413458D01*
X71782Y-413466D02*
X72088Y-413462D01*
X71476Y-413470D02*
X71782Y-413466D01*
X71169Y-413474D02*
X71476Y-413470D01*
X70863Y-413478D02*
X71169Y-413474D01*
X70557Y-413482D02*
X70863Y-413478D01*
X70250Y-413486D02*
X70557Y-413482D01*
X69944Y-413490D02*
X70250Y-413486D01*
X69638Y-413494D02*
X69944Y-413490D01*
X69331Y-413498D02*
X69638Y-413494D01*
X69025Y-413502D02*
X69331Y-413498D01*
X68719Y-413506D02*
X69025Y-413502D01*
X68412Y-413509D02*
X68719Y-413506D01*
X68106Y-413513D02*
X68412Y-413509D01*
X67800Y-413517D02*
X68106Y-413513D01*
X67494Y-413521D02*
X67800Y-413517D01*
X67187Y-413525D02*
X67494Y-413521D01*
X66881Y-413528D02*
X67187Y-413525D01*
X66575Y-413532D02*
X66881Y-413528D01*
X66268Y-413536D02*
X66575Y-413532D01*
X65962Y-413539D02*
X66268Y-413536D01*
X65656Y-413543D02*
X65962Y-413539D01*
X65349Y-413546D02*
X65656Y-413543D01*
X65043Y-413550D02*
X65349Y-413546D01*
X64737Y-413553D02*
X65043Y-413550D01*
X64430Y-413557D02*
X64737Y-413553D01*
X64124Y-413560D02*
X64430Y-413557D01*
X63818Y-413564D02*
X64124Y-413560D01*
X63511Y-413567D02*
X63818Y-413564D01*
X63205Y-413570D02*
X63511Y-413567D01*
X62899Y-413573D02*
X63205Y-413570D01*
X62592Y-413577D02*
X62899Y-413573D01*
X62286Y-413580D02*
X62592Y-413577D01*
X61980Y-413583D02*
X62286Y-413580D01*
X61673Y-413586D02*
X61980Y-413583D01*
X61367Y-413589D02*
X61673Y-413586D01*
X61061Y-413592D02*
X61367Y-413589D01*
X60754Y-413595D02*
X61061Y-413592D01*
X60448Y-413598D02*
X60754Y-413595D01*
X60142Y-413601D02*
X60448Y-413598D01*
X59835Y-413603D02*
X60142Y-413601D01*
X59529Y-413606D02*
X59835Y-413603D01*
X59223Y-413609D02*
X59529Y-413606D01*
X58916Y-413612D02*
X59223Y-413609D01*
X58610Y-413614D02*
X58916Y-413612D01*
X58304Y-413617D02*
X58610Y-413614D01*
X57997Y-413620D02*
X58304Y-413617D01*
X57691Y-413622D02*
X57997Y-413620D01*
X57385Y-413625D02*
X57691Y-413622D01*
X57078Y-413627D02*
X57385Y-413625D01*
X56772Y-413630D02*
X57078Y-413627D01*
X56466Y-413632D02*
X56772Y-413630D01*
X56159Y-413635D02*
X56466Y-413632D01*
X55853Y-413637D02*
X56159Y-413635D01*
X55547Y-413640D02*
X55853Y-413637D01*
X55240Y-413642D02*
X55547Y-413640D01*
X54934Y-413644D02*
X55240Y-413642D01*
X54628Y-413647D02*
X54934Y-413644D01*
X54321Y-413649D02*
X54628Y-413647D01*
X53709Y-413654D02*
X54321Y-413649D01*
X53402Y-413656D02*
X53709Y-413654D01*
X53096Y-413658D02*
X53402Y-413656D01*
X52790Y-413661D02*
X53096Y-413658D01*
X52483Y-413663D02*
X52790Y-413661D01*
X52177Y-413665D02*
X52483Y-413663D01*
X51871Y-413667D02*
X52177Y-413665D01*
X51564Y-413670D02*
X51871Y-413667D01*
X51258Y-413672D02*
X51564Y-413670D01*
X50952Y-413674D02*
X51258Y-413672D01*
X50645Y-413676D02*
X50952Y-413674D01*
X50339Y-413678D02*
X50645Y-413676D01*
X50033Y-413680D02*
X50339Y-413678D01*
X49726Y-413682D02*
X50033Y-413680D01*
X49420Y-413685D02*
X49726Y-413682D01*
X49114Y-413686D02*
X49420Y-413685D01*
X48807Y-413689D02*
X49114Y-413686D01*
X48501Y-413690D02*
X48807Y-413689D01*
X48195Y-413692D02*
X48501Y-413690D01*
X47888Y-413694D02*
X48195Y-413692D01*
X47582Y-413696D02*
X47888Y-413694D01*
X47276Y-413698D02*
X47582Y-413696D01*
X46969Y-413700D02*
X47276Y-413698D01*
X46663Y-413702D02*
X46969Y-413700D01*
X46357Y-413703D02*
X46663Y-413702D01*
X46050Y-413705D02*
X46357Y-413703D01*
X45744Y-413707D02*
X46050Y-413705D01*
X45438Y-413709D02*
X45744Y-413707D01*
X44825Y-413712D02*
X45438Y-413709D01*
X44519Y-413714D02*
X44825Y-413712D01*
X44212Y-413715D02*
X44519Y-413714D01*
X43906Y-413717D02*
X44212Y-413715D01*
X43600Y-413718D02*
X43906Y-413717D01*
X43293Y-413720D02*
X43600Y-413718D01*
X42987Y-413721D02*
X43293Y-413720D01*
X42681Y-413723D02*
X42987Y-413721D01*
X42374Y-413724D02*
X42681Y-413723D01*
X42068Y-413726D02*
X42374Y-413724D01*
X41761Y-413727D02*
X42068Y-413726D01*
X41455Y-413728D02*
X41761Y-413727D01*
X41149Y-413730D02*
X41455Y-413728D01*
X40842Y-413731D02*
X41149Y-413730D01*
X40536Y-413732D02*
X40842Y-413731D01*
X40230Y-413734D02*
X40536Y-413732D01*
X39924Y-413735D02*
X40230Y-413734D01*
X39617Y-413736D02*
X39924Y-413735D01*
X39311Y-413737D02*
X39617Y-413736D01*
X39004Y-413739D02*
X39311Y-413737D01*
X38698Y-413740D02*
X39004Y-413739D01*
X38392Y-413741D02*
X38698Y-413740D01*
X38085Y-413742D02*
X38392Y-413741D01*
X37779Y-413744D02*
X38085Y-413742D01*
X37473Y-413745D02*
X37779Y-413744D01*
X37166Y-413746D02*
X37473Y-413745D01*
X36860Y-413747D02*
X37166Y-413746D01*
X36554Y-413749D02*
X36860Y-413747D01*
X36247Y-413750D02*
X36554Y-413749D01*
X35941Y-413751D02*
X36247Y-413750D01*
X35635Y-413752D02*
X35941Y-413751D01*
X35328Y-413753D02*
X35635Y-413752D01*
X35022Y-413755D02*
X35328Y-413753D01*
X34716Y-413756D02*
X35022Y-413755D01*
X34409Y-413757D02*
X34716Y-413756D01*
X34103Y-413758D02*
X34409Y-413757D01*
X33797Y-413759D02*
X34103Y-413758D01*
X33490Y-413760D02*
X33797Y-413759D01*
X33184Y-413762D02*
X33490Y-413760D01*
X32878Y-413763D02*
X33184Y-413762D01*
X32571Y-413764D02*
X32878Y-413763D01*
X32265Y-413765D02*
X32571Y-413764D01*
X31959Y-413766D02*
X32265Y-413765D01*
X31652Y-413767D02*
X31959Y-413766D01*
X31346Y-413768D02*
X31652Y-413767D01*
X31040Y-413769D02*
X31346Y-413768D01*
X30733Y-413770D02*
X31040Y-413769D01*
X30427Y-413771D02*
X30733Y-413770D01*
X30121Y-413772D02*
X30427Y-413771D01*
X29814Y-413773D02*
X30121Y-413772D01*
X29508Y-413774D02*
X29814Y-413773D01*
X29202Y-413775D02*
X29508Y-413774D01*
X28895Y-413776D02*
X29202Y-413775D01*
X28589Y-413777D02*
X28895Y-413776D01*
X28282Y-413777D02*
X28589Y-413777D01*
X27976Y-413778D02*
X28282Y-413777D01*
X27670Y-413779D02*
X27976Y-413778D01*
X27364Y-413779D02*
X27670Y-413779D01*
X26751Y-413781D02*
X27364Y-413779D01*
X26444Y-413781D02*
X26751Y-413781D01*
X26138Y-413782D02*
X26444Y-413781D01*
X25832Y-413782D02*
X26138Y-413782D01*
X25525Y-413783D02*
X25832Y-413782D01*
X25219Y-413783D02*
X25525Y-413783D01*
X24913Y-413784D02*
X25219Y-413783D01*
X24606Y-413784D02*
X24913Y-413784D01*
X24300Y-413784D02*
X24606Y-413784D01*
X23994Y-413785D02*
X24300Y-413784D01*
X23687Y-413785D02*
X23994Y-413785D01*
X23381Y-413786D02*
X23687Y-413785D01*
X23075Y-413786D02*
X23381Y-413786D01*
X22768Y-413786D02*
X23075Y-413786D01*
X22462Y-413786D02*
X22768Y-413786D01*
X22156Y-413787D02*
X22462Y-413786D01*
X21849Y-413787D02*
X22156Y-413787D01*
X21543Y-413787D02*
X21849Y-413787D01*
X21237Y-413787D02*
X21543Y-413787D01*
X20930Y-413788D02*
X21237Y-413787D01*
X20624Y-413788D02*
X20930Y-413788D01*
X20318Y-413788D02*
X20624Y-413788D01*
X20011Y-413788D02*
X20318Y-413788D01*
X19705Y-413789D02*
X20011Y-413788D01*
X19399Y-413789D02*
X19705Y-413789D01*
X19092Y-413789D02*
X19399Y-413789D01*
X18786Y-413789D02*
X19092Y-413789D01*
X18479Y-413790D02*
X18786Y-413789D01*
X18173Y-413790D02*
X18479Y-413790D01*
X17867Y-413790D02*
X18173Y-413790D01*
X17560Y-413791D02*
X17867Y-413790D01*
X17254Y-413791D02*
X17560Y-413791D01*
X16948Y-413791D02*
X17254Y-413791D01*
X16641Y-413792D02*
X16948Y-413791D01*
X16335Y-413792D02*
X16641Y-413792D01*
X16029Y-413792D02*
X16335Y-413792D01*
X15722Y-413793D02*
X16029Y-413792D01*
X15416Y-413793D02*
X15722Y-413793D01*
X15110Y-413793D02*
X15416Y-413793D01*
X14803Y-413794D02*
X15110Y-413793D01*
X14497Y-413794D02*
X14803Y-413794D01*
X14191Y-413795D02*
X14497Y-413794D01*
X13884Y-413795D02*
X14191Y-413795D01*
X13578Y-413796D02*
X13884Y-413795D01*
X13272Y-413796D02*
X13578Y-413796D01*
X12965Y-413796D02*
X13272Y-413796D01*
X12659Y-413797D02*
X12965Y-413796D01*
X12353Y-413797D02*
X12659Y-413797D01*
X12046Y-413797D02*
X12353Y-413797D01*
X11740Y-413798D02*
X12046Y-413797D01*
X11434Y-413798D02*
X11740Y-413798D01*
X11127Y-413798D02*
X11434Y-413798D01*
X10821Y-413799D02*
X11127Y-413798D01*
X10515Y-413799D02*
X10821Y-413799D01*
X10208Y-413799D02*
X10515Y-413799D01*
X9902Y-413800D02*
X10208Y-413799D01*
X9596Y-413800D02*
X9902Y-413800D01*
X9289Y-413800D02*
X9596Y-413800D01*
X8983Y-413800D02*
X9289Y-413800D01*
X8676Y-413800D02*
X8983Y-413800D01*
X8370Y-413800D02*
X8676Y-413800D01*
X8064Y-413801D02*
X8370Y-413800D01*
X7757Y-413801D02*
X8064Y-413801D01*
X7451Y-413801D02*
X7757Y-413801D01*
X7145Y-413801D02*
X7451Y-413801D01*
X6838Y-413801D02*
X7145Y-413801D01*
X6532Y-413801D02*
X6838Y-413801D01*
X6226Y-413801D02*
X6532Y-413801D01*
X5613Y-413801D02*
X6226D01*
X5307Y-413801D02*
X5613Y-413801D01*
X5000Y-413801D02*
X5307Y-413801D01*
X4694Y-413801D02*
X5000Y-413801D01*
X4388Y-413801D02*
X4694Y-413801D01*
X4081Y-413801D02*
X4388Y-413801D01*
X3775Y-413801D02*
X4081Y-413801D01*
X3469Y-413801D02*
X3775Y-413801D01*
X3162Y-413800D02*
X3469Y-413801D01*
X2856Y-413800D02*
X3162Y-413800D01*
X2550Y-413800D02*
X2856Y-413800D01*
X2243Y-413800D02*
X2550Y-413800D01*
X1937Y-413800D02*
X2243Y-413800D01*
X1631Y-413800D02*
X1937Y-413800D01*
X1324Y-413800D02*
X1631Y-413800D01*
X1018Y-413800D02*
X1324Y-413800D01*
X712Y-413800D02*
X1018Y-413800D01*
X405Y-413800D02*
X712D01*
X99Y-413800D02*
X405Y-413800D01*
X-207Y-413800D02*
X99D01*
X-514Y-413800D02*
X-207Y-413800D01*
X-820Y-413800D02*
X-514Y-413800D01*
X-1126Y-413800D02*
X-820Y-413800D01*
X-1433Y-413800D02*
X-1126Y-413800D01*
X-1739Y-413800D02*
X-1433Y-413800D01*
X-2045Y-413800D02*
X-1739Y-413800D01*
X-2352Y-413800D02*
X-2045Y-413800D01*
X-2658Y-413800D02*
X-2352Y-413800D01*
X-2964Y-413800D02*
X-2658Y-413800D01*
X-3271Y-413800D02*
X-2964Y-413800D01*
X-3577Y-413801D02*
X-3271Y-413800D01*
X-3884Y-413801D02*
X-3577Y-413801D01*
X-4190Y-413801D02*
X-3884Y-413801D01*
X-4496Y-413801D02*
X-4190Y-413801D01*
X-4803Y-413801D02*
X-4496Y-413801D01*
X-5109Y-413801D02*
X-4803Y-413801D01*
X-5415Y-413801D02*
X-5109Y-413801D01*
X-5722Y-413801D02*
X-5415Y-413801D01*
X-6334Y-413801D02*
X-5722D01*
X-6641Y-413801D02*
X-6334Y-413801D01*
X-6947Y-413801D02*
X-6641Y-413801D01*
X-7253Y-413801D02*
X-6947Y-413801D01*
X-7560Y-413801D02*
X-7253Y-413801D01*
X-7866Y-413801D02*
X-7560Y-413801D01*
X-8172Y-413800D02*
X-7866Y-413801D01*
X-8479Y-413800D02*
X-8172Y-413800D01*
X-8785Y-413800D02*
X-8479Y-413800D01*
X-9091Y-413800D02*
X-8785Y-413800D01*
X-9398Y-413800D02*
X-9091Y-413800D01*
X-9704Y-413800D02*
X-9398Y-413800D01*
X-10010Y-413799D02*
X-9704Y-413800D01*
X-10317Y-413799D02*
X-10010Y-413799D01*
X-10623Y-413799D02*
X-10317Y-413799D01*
X-10929Y-413798D02*
X-10623Y-413799D01*
X-11236Y-413798D02*
X-10929Y-413798D01*
X-11542Y-413798D02*
X-11236Y-413798D01*
X-11848Y-413798D02*
X-11542Y-413798D01*
X-12155Y-413797D02*
X-11848Y-413798D01*
X-12461Y-413797D02*
X-12155Y-413797D01*
X-12767Y-413797D02*
X-12461Y-413797D01*
X-13074Y-413796D02*
X-12767Y-413797D01*
X-13380Y-413796D02*
X-13074Y-413796D01*
X-13686Y-413795D02*
X-13380Y-413796D01*
X-13993Y-413795D02*
X-13686Y-413795D01*
X-14299Y-413795D02*
X-13993Y-413795D01*
X-14606Y-413794D02*
X-14299Y-413795D01*
X-14912Y-413794D02*
X-14606Y-413794D01*
X-15218Y-413793D02*
X-14912Y-413794D01*
X-15525Y-413793D02*
X-15218Y-413793D01*
X-15831Y-413793D02*
X-15525Y-413793D01*
X-16137Y-413792D02*
X-15831Y-413793D01*
X-16444Y-413792D02*
X-16137Y-413792D01*
X-16750Y-413792D02*
X-16444Y-413792D01*
X-17056Y-413791D02*
X-16750Y-413792D01*
X-17363Y-413791D02*
X-17056Y-413791D01*
X-17669Y-413791D02*
X-17363Y-413791D01*
X-17975Y-413790D02*
X-17669Y-413791D01*
X-18282Y-413790D02*
X-17975Y-413790D01*
X-18588Y-413790D02*
X-18282Y-413790D01*
X-18894Y-413789D02*
X-18588Y-413790D01*
X-19201Y-413789D02*
X-18894Y-413789D01*
X-19507Y-413789D02*
X-19201Y-413789D01*
X-19813Y-413788D02*
X-19507Y-413789D01*
X-20120Y-413788D02*
X-19813Y-413788D01*
X-20426Y-413788D02*
X-20120Y-413788D01*
X-20732Y-413788D02*
X-20426Y-413788D01*
X-21039Y-413788D02*
X-20732Y-413788D01*
X-21345Y-413787D02*
X-21039Y-413788D01*
X-21651Y-413787D02*
X-21345Y-413787D01*
X-21958Y-413787D02*
X-21651Y-413787D01*
X-22264Y-413787D02*
X-21958Y-413787D01*
X-22571Y-413786D02*
X-22264Y-413787D01*
X-22877Y-413786D02*
X-22571Y-413786D01*
X-23183Y-413786D02*
X-22877Y-413786D01*
X-23489Y-413785D02*
X-23183Y-413786D01*
X-23796Y-413785D02*
X-23489Y-413785D01*
X-24102Y-413785D02*
X-23796Y-413785D01*
X-24409Y-413784D02*
X-24102Y-413785D01*
X-24715Y-413784D02*
X-24409Y-413784D01*
X-25021Y-413784D02*
X-24715Y-413784D01*
X-25328Y-413783D02*
X-25021Y-413784D01*
X-25634Y-413783D02*
X-25328Y-413783D01*
X-25940Y-413782D02*
X-25634Y-413783D01*
X-26247Y-413782D02*
X-25940Y-413782D01*
X-26553Y-413781D02*
X-26247Y-413782D01*
X-26859Y-413781D02*
X-26553Y-413781D01*
X-27166Y-413780D02*
X-26859Y-413781D01*
X-27472Y-413779D02*
X-27166Y-413780D01*
X-27778Y-413779D02*
X-27472Y-413779D01*
X-28085Y-413778D02*
X-27778Y-413779D01*
X-28391Y-413777D02*
X-28085Y-413778D01*
X-28697Y-413776D02*
X-28391Y-413777D01*
X-29004Y-413775D02*
X-28697Y-413776D01*
X-29310Y-413775D02*
X-29004Y-413775D01*
X-29616Y-413774D02*
X-29310Y-413775D01*
X-29923Y-413773D02*
X-29616Y-413774D01*
X-30229Y-413772D02*
X-29923Y-413773D01*
X-30535Y-413771D02*
X-30229Y-413772D01*
X-30842Y-413770D02*
X-30535Y-413771D01*
X-31148Y-413769D02*
X-30842Y-413770D01*
X-31454Y-413768D02*
X-31148Y-413769D01*
X-31761Y-413767D02*
X-31454Y-413768D01*
X-32067Y-413766D02*
X-31761Y-413767D01*
X-32373Y-413765D02*
X-32067Y-413766D01*
X-32680Y-413764D02*
X-32373Y-413765D01*
X-32986Y-413762D02*
X-32680Y-413764D01*
X-33293Y-413761D02*
X-32986Y-413762D01*
X-33599Y-413760D02*
X-33293Y-413761D01*
X-33905Y-413759D02*
X-33599Y-413760D01*
X-34211Y-413758D02*
X-33905Y-413759D01*
X-34518Y-413756D02*
X-34211Y-413758D01*
X-34824Y-413755D02*
X-34518Y-413756D01*
X-35131Y-413754D02*
X-34824Y-413755D01*
X-35437Y-413753D02*
X-35131Y-413754D01*
X-35743Y-413752D02*
X-35437Y-413753D01*
X-36050Y-413750D02*
X-35743Y-413752D01*
X-36356Y-413749D02*
X-36050Y-413750D01*
X-36662Y-413748D02*
X-36356Y-413749D01*
X-36969Y-413747D02*
X-36662Y-413748D01*
X-37275Y-413746D02*
X-36969Y-413747D01*
X-37581Y-413745D02*
X-37275Y-413746D01*
X-37888Y-413743D02*
X-37581Y-413745D01*
X-38194Y-413742D02*
X-37888Y-413743D01*
X-38500Y-413741D02*
X-38194Y-413742D01*
X-38807Y-413740D02*
X-38500Y-413741D01*
X-39113Y-413738D02*
X-38807Y-413740D01*
X-39419Y-413737D02*
X-39113Y-413738D01*
X-39726Y-413736D02*
X-39419Y-413737D01*
X-40032Y-413735D02*
X-39726Y-413736D01*
X-40338Y-413733D02*
X-40032Y-413735D01*
X-40645Y-413732D02*
X-40338Y-413733D01*
X-40951Y-413731D02*
X-40645Y-413732D01*
X-41257Y-413729D02*
X-40951Y-413731D01*
X-41564Y-413728D02*
X-41257Y-413729D01*
X-41870Y-413727D02*
X-41564Y-413728D01*
X-42176Y-413725D02*
X-41870Y-413727D01*
X-42483Y-413724D02*
X-42176Y-413725D01*
X-42789Y-413722D02*
X-42483Y-413724D01*
X-43095Y-413721D02*
X-42789Y-413722D01*
X-43402Y-413719D02*
X-43095Y-413721D01*
X-43708Y-413718D02*
X-43402Y-413719D01*
X-44014Y-413716D02*
X-43708Y-413718D01*
X-44321Y-413715D02*
X-44014Y-413716D01*
X-44627Y-413713D02*
X-44321Y-413715D01*
X-44933Y-413712D02*
X-44627Y-413713D01*
X-45240Y-413710D02*
X-44933Y-413712D01*
X-45546Y-413708D02*
X-45240Y-413710D01*
X-45852Y-413707D02*
X-45546Y-413708D01*
X-46159Y-413705D02*
X-45852Y-413707D01*
X-46465Y-413703D02*
X-46159Y-413705D01*
X-46771Y-413701D02*
X-46465Y-413703D01*
X-47078Y-413699D02*
X-46771Y-413701D01*
X-47384Y-413698D02*
X-47078Y-413699D01*
X-47691Y-413696D02*
X-47384Y-413698D01*
X-47997Y-413694D02*
X-47691Y-413696D01*
X-48303Y-413692D02*
X-47997Y-413694D01*
X-48609Y-413690D02*
X-48303Y-413692D01*
X-48916Y-413688D02*
X-48609Y-413690D01*
X-49222Y-413686D02*
X-48916Y-413688D01*
X-49528Y-413684D02*
X-49222Y-413686D01*
X-49835Y-413682D02*
X-49528Y-413684D01*
X-50141Y-413680D02*
X-49835Y-413682D01*
X-50448Y-413678D02*
X-50141Y-413680D01*
X-50754Y-413675D02*
X-50448Y-413678D01*
X-51060Y-413673D02*
X-50754Y-413675D01*
X-51367Y-413671D02*
X-51060Y-413673D01*
X-51673Y-413669D02*
X-51367Y-413671D01*
X-51979Y-413667D02*
X-51673Y-413669D01*
X-52285Y-413665D02*
X-51979Y-413667D01*
X-52592Y-413662D02*
X-52285Y-413665D01*
X-52898Y-413660D02*
X-52592Y-413662D01*
X-53204Y-413658D02*
X-52898Y-413660D01*
X-53511Y-413655D02*
X-53204Y-413658D01*
X-53817Y-413653D02*
X-53511Y-413655D01*
X-54124Y-413651D02*
X-53817Y-413653D01*
X-54430Y-413648D02*
X-54124Y-413651D01*
X-54736Y-413646D02*
X-54430Y-413648D01*
X-55043Y-413644D02*
X-54736Y-413646D01*
X-55349Y-413641D02*
X-55043Y-413644D01*
X-55655Y-413639D02*
X-55349Y-413641D01*
X-55962Y-413636D02*
X-55655Y-413639D01*
X-56268Y-413634D02*
X-55962Y-413636D01*
X-56574Y-413631D02*
X-56268Y-413634D01*
X-56881Y-413629D02*
X-56574Y-413631D01*
X-57187Y-413626D02*
X-56881Y-413629D01*
X-57493Y-413624D02*
X-57187Y-413626D01*
X-57800Y-413621D02*
X-57493Y-413624D01*
X-58106Y-413619D02*
X-57800Y-413621D01*
X-58412Y-413616D02*
X-58106Y-413619D01*
X-58719Y-413613D02*
X-58412Y-413616D01*
X-59025Y-413610D02*
X-58719Y-413613D01*
X-59331Y-413608D02*
X-59025Y-413610D01*
X-59637Y-413605D02*
X-59331Y-413608D01*
X-59944Y-413602D02*
X-59637Y-413605D01*
X-60250Y-413599D02*
X-59944Y-413602D01*
X-60557Y-413596D02*
X-60250Y-413599D01*
X-60863Y-413593D02*
X-60557Y-413596D01*
X-61169Y-413591D02*
X-60863Y-413593D01*
X-61476Y-413588D02*
X-61169Y-413591D01*
X-61782Y-413585D02*
X-61476Y-413588D01*
X-62088Y-413582D02*
X-61782Y-413585D01*
X-62394Y-413578D02*
X-62088Y-413582D01*
X-62701Y-413575D02*
X-62394Y-413578D01*
X-63007Y-413572D02*
X-62701Y-413575D01*
X-63313Y-413569D02*
X-63007Y-413572D01*
X-64845Y-413553D02*
X-63313Y-413569D01*
X-66377Y-413535D02*
X-64845Y-413553D01*
X-67908Y-413517D02*
X-66377Y-413535D01*
X-69440Y-413498D02*
X-67908Y-413517D01*
X-70971Y-413477D02*
X-69440Y-413498D01*
X-72197Y-413460D02*
X-70971Y-413477D01*
X-72809Y-413452D02*
X-72197Y-413460D01*
X-73116Y-413447D02*
X-72809Y-413452D01*
X-73422Y-413443D02*
X-73116Y-413447D01*
X-73728Y-413438D02*
X-73422Y-413443D01*
X-74035Y-413434D02*
X-73728Y-413438D01*
X-74341Y-413429D02*
X-74035Y-413434D01*
X-74647Y-413425D02*
X-74341Y-413429D01*
X-74954Y-413420D02*
X-74647Y-413425D01*
X-75260Y-413416D02*
X-74954Y-413420D01*
X-75566Y-413411D02*
X-75260Y-413416D01*
X-75873Y-413406D02*
X-75566Y-413411D01*
X-76179Y-413402D02*
X-75873Y-413406D01*
X-76485Y-413397D02*
X-76179Y-413402D01*
X-76791Y-413392D02*
X-76485Y-413397D01*
X-77098Y-413387D02*
X-76791Y-413392D01*
X-77404Y-413382D02*
X-77098Y-413387D01*
X-77710Y-413378D02*
X-77404Y-413382D01*
X-78017Y-413373D02*
X-77710Y-413378D01*
X-78323Y-413368D02*
X-78017Y-413373D01*
X-78629Y-413363D02*
X-78323Y-413368D01*
X-78936Y-413358D02*
X-78629Y-413363D01*
X-79242Y-413353D02*
X-78936Y-413358D01*
X-79548Y-413348D02*
X-79242Y-413353D01*
X-79854Y-413343D02*
X-79548Y-413348D01*
X-80161Y-413338D02*
X-79854Y-413343D01*
X-80467Y-413332D02*
X-80161Y-413338D01*
X-80773Y-413327D02*
X-80467Y-413332D01*
X-81080Y-413322D02*
X-80773Y-413327D01*
X-81386Y-413317D02*
X-81080Y-413322D01*
X-81692Y-413312D02*
X-81386Y-413317D01*
X-81999Y-413307D02*
X-81692Y-413312D01*
X-82305Y-413301D02*
X-81999Y-413307D01*
X-82611Y-413296D02*
X-82305Y-413301D01*
X-82917Y-413291D02*
X-82611Y-413296D01*
X-83224Y-413285D02*
X-82917Y-413291D01*
X-83530Y-413280D02*
X-83224Y-413285D01*
X-83836Y-413274D02*
X-83530Y-413280D01*
X-84143Y-413269D02*
X-83836Y-413274D01*
X-84449Y-413263D02*
X-84143Y-413269D01*
X-84755Y-413258D02*
X-84449Y-413263D01*
X-85062Y-413252D02*
X-84755Y-413258D01*
X-85368Y-413246D02*
X-85062Y-413252D01*
X-85674Y-413241D02*
X-85368Y-413246D01*
X-85980Y-413235D02*
X-85674Y-413241D01*
X-86287Y-413229D02*
X-85980Y-413235D01*
X-86593Y-413223D02*
X-86287Y-413229D01*
X-86899Y-413218D02*
X-86593Y-413223D01*
X-87206Y-413212D02*
X-86899Y-413218D01*
X-87512Y-413205D02*
X-87206Y-413212D01*
X-87818Y-413199D02*
X-87512Y-413205D01*
X-88124Y-413193D02*
X-87818Y-413199D01*
X-88431Y-413187D02*
X-88124Y-413193D01*
X-88737Y-413181D02*
X-88431Y-413187D01*
X-89043Y-413175D02*
X-88737Y-413181D01*
X-89349Y-413168D02*
X-89043Y-413175D01*
X-89656Y-413162D02*
X-89349Y-413168D01*
X-89962Y-413155D02*
X-89656Y-413162D01*
X-90268Y-413148D02*
X-89962Y-413155D01*
X-90575Y-413142D02*
X-90268Y-413148D01*
X-90881Y-413135D02*
X-90575Y-413142D01*
X-91187Y-413128D02*
X-90881Y-413135D01*
X-91493Y-413121D02*
X-91187Y-413128D01*
X-91800Y-413114D02*
X-91493Y-413121D01*
X-92106Y-413107D02*
X-91800Y-413114D01*
X-92412Y-413100D02*
X-92106Y-413107D01*
X-92718Y-413092D02*
X-92412Y-413100D01*
X-93025Y-413085D02*
X-92718Y-413092D01*
X-93331Y-413077D02*
X-93025Y-413085D01*
X-93637Y-413069D02*
X-93331Y-413077D01*
X-93943Y-413061D02*
X-93637Y-413069D01*
X-96393Y-412991D02*
X-93943Y-413061D01*
X-97924Y-412942D02*
X-96393Y-412991D01*
X-99455Y-412888D02*
X-97924Y-412942D01*
X-100986Y-412831D02*
X-99455Y-412888D01*
X-102516Y-412769D02*
X-100986Y-412831D01*
X-104047Y-412704D02*
X-102516Y-412769D01*
X-105271Y-412649D02*
X-104047Y-412704D01*
X-106495Y-412591D02*
X-105271Y-412649D01*
X-107719Y-412531D02*
X-106495Y-412591D01*
X-110166Y-412403D02*
X-107719Y-412531D01*
X-111084Y-412353D02*
X-110166Y-412403D01*
X-112002Y-412301D02*
X-111084Y-412353D01*
X-112919Y-412248D02*
X-112002Y-412301D01*
X-113836Y-412194D02*
X-112919Y-412248D01*
X-114754Y-412138D02*
X-113836Y-412194D01*
X-115671Y-412080D02*
X-114754Y-412138D01*
X-116588Y-412021D02*
X-115671Y-412080D01*
X-117505Y-411961D02*
X-116588Y-412021D01*
X-118422Y-411899D02*
X-117505Y-411961D01*
X-119339Y-411835D02*
X-118422Y-411899D01*
X-120256Y-411770D02*
X-119339Y-411835D01*
X-121173Y-411704D02*
X-120256Y-411770D01*
X-122089Y-411636D02*
X-121173Y-411704D01*
X-123311Y-411542D02*
X-122089Y-411636D01*
X-126364Y-411296D02*
X-123311Y-411542D01*
X-129417Y-411032D02*
X-126364Y-411296D01*
X-132467Y-410750D02*
X-129417Y-411032D01*
X-135516Y-410450D02*
X-132467Y-410750D01*
X-138867Y-410098D02*
X-135516Y-410450D01*
X-142216Y-409723D02*
X-138867Y-410098D01*
X-145563Y-409325D02*
X-142216Y-409723D01*
X-148906Y-408905D02*
X-145563Y-409325D01*
X-152247Y-408461D02*
X-148906Y-408905D01*
X-152854Y-408378D02*
X-152247Y-408461D01*
X-152854Y-408378D02*
Y-408378D01*
X-163006Y-416124D02*
X-163006D01*
X-163080Y-416689D02*
X-163006Y-416124D01*
X-163080Y-416689D02*
X-163080Y-416689D01*
X-175796Y-423972D02*
X-173610Y-424375D01*
X-176888Y-423766D02*
X-175796Y-423972D01*
X-177979Y-423558D02*
X-176888Y-423766D01*
X-179070Y-423348D02*
X-177979Y-423558D01*
X-180161Y-423137D02*
X-179070Y-423348D01*
X-181251Y-422923D02*
X-180161Y-423137D01*
X-182341Y-422707D02*
X-181251Y-422923D01*
X-183431Y-422490D02*
X-182341Y-422707D01*
X-184520Y-422270D02*
X-183431Y-422490D01*
X-185608Y-422048D02*
X-184520Y-422270D01*
X-186696Y-421823D02*
X-185608Y-422048D01*
X-187783Y-421596D02*
X-186696Y-421823D01*
X-188870Y-421365D02*
X-187783Y-421596D01*
X-189956Y-421132D02*
X-188870Y-421365D01*
X-191042Y-420896D02*
X-189956Y-421132D01*
X-193211Y-420414D02*
X-191042Y-420896D01*
X-195377Y-419920D02*
X-193211Y-420414D01*
X-197540Y-419413D02*
X-195377Y-419920D01*
X-199701Y-418894D02*
X-197540Y-419413D01*
X-201858Y-418363D02*
X-199701Y-418894D01*
X-206165Y-417267D02*
X-201858Y-418363D01*
X-207240Y-416985D02*
X-206165Y-417267D01*
X-208314Y-416700D02*
X-207240Y-416985D01*
X-209387Y-416413D02*
X-208314Y-416700D01*
X-210459Y-416122D02*
X-209387Y-416413D01*
X-211530Y-415828D02*
X-210459Y-416122D01*
X-212601Y-415531D02*
X-211530Y-415828D01*
X-213670Y-415231D02*
X-212601Y-415531D01*
X-214739Y-414927D02*
X-213670Y-415231D01*
X-217940Y-413998D02*
X-214739Y-414927D01*
X-221132Y-413039D02*
X-217940Y-413998D01*
X-224315Y-412050D02*
X-221132Y-413039D01*
X-236949Y-407798D02*
X-232755Y-409268D01*
X-237995Y-407422D02*
X-236949Y-407798D01*
X-239039Y-407043D02*
X-237995Y-407422D01*
X-240082Y-406661D02*
X-239039Y-407043D01*
X-241124Y-406276D02*
X-240082Y-406661D01*
X-242165Y-405887D02*
X-241124Y-406276D01*
X-243204Y-405495D02*
X-242165Y-405887D01*
X-244242Y-405099D02*
X-243204Y-405495D01*
X-245279Y-404700D02*
X-244242Y-405099D01*
X-246315Y-404297D02*
X-245279Y-404700D01*
X-247348Y-403890D02*
X-246315Y-404297D01*
X-251469Y-402226D02*
X-247348Y-403890D01*
X-254543Y-400939D02*
X-251469Y-402226D01*
X-257604Y-399620D02*
X-254543Y-400939D01*
X-260651Y-398270D02*
X-257604Y-399620D01*
X-262675Y-397351D02*
X-260651Y-398270D01*
X-264691Y-396418D02*
X-262675Y-397351D01*
X-266701Y-395471D02*
X-264691Y-396418D01*
X-266701Y-395471D02*
X-266701D01*
X-276644Y-390516D02*
X-276644D01*
X-278610Y-389481D02*
X-276644Y-390516D01*
X-279591Y-388959D02*
X-278610Y-389481D01*
X-280569Y-388432D02*
X-279591Y-388959D01*
X-281546Y-387902D02*
X-280569Y-388432D01*
X-282520Y-387369D02*
X-281546Y-387902D01*
X-283492Y-386831D02*
X-282520Y-387369D01*
X-284463Y-386289D02*
X-283492Y-386831D01*
X-285430Y-385744D02*
X-284463Y-386289D01*
X-286396Y-385195D02*
X-285430Y-385744D01*
X-288320Y-384083D02*
X-286396Y-385195D01*
X-289279Y-383522D02*
X-288320Y-384083D01*
X-290235Y-382956D02*
X-289279Y-383522D01*
X-291189Y-382387D02*
X-290235Y-382956D01*
X-292141Y-381814D02*
X-291189Y-382387D01*
X-293090Y-381237D02*
X-292141Y-381814D01*
X-294037Y-380656D02*
X-293090Y-381237D01*
X-294982Y-380072D02*
X-294037Y-380656D01*
X-295925Y-379485D02*
X-294982Y-380072D01*
X-296866Y-378894D02*
X-295925Y-379485D01*
X-297805Y-378299D02*
X-296866Y-378894D01*
X-298741Y-377701D02*
X-297805Y-378299D01*
X-299675Y-377099D02*
X-298741Y-377701D01*
X-300606Y-376494D02*
X-299675Y-377099D01*
X-301535Y-375884D02*
X-300606Y-376494D01*
X-302462Y-375271D02*
X-301535Y-375884D01*
X-303385Y-374654D02*
X-302462Y-375271D01*
X-304307Y-374033D02*
X-303385Y-374654D01*
X-306140Y-372778D02*
X-304307Y-374033D01*
X-307053Y-372145D02*
X-306140Y-372778D01*
X-307964Y-371508D02*
X-307053Y-372145D01*
X-308871Y-370867D02*
X-307964Y-371508D01*
X-309776Y-370222D02*
X-308871Y-370867D01*
X-310678Y-369574D02*
X-309776Y-370222D01*
X-311577Y-368922D02*
X-310678Y-369574D01*
X-312474Y-368266D02*
X-311577Y-368922D01*
X-315148Y-366276D02*
X-312474Y-368266D01*
X-316917Y-364932D02*
X-315148Y-366276D01*
X-318675Y-363573D02*
X-316917Y-364932D01*
X-320421Y-362199D02*
X-318675Y-363573D01*
X-330648Y-353648D02*
X-330648D01*
X-334776Y-349931D02*
Y-349931D01*
X-340417Y-344578D02*
X-338822Y-346125D01*
X-342000Y-343018D02*
X-340417Y-344578D01*
X-345124Y-339858D02*
X-342000Y-343018D01*
X-345897Y-339060D02*
X-345124Y-339858D01*
X-346666Y-338259D02*
X-345897Y-339060D01*
X-347432Y-337454D02*
X-346666Y-338259D01*
X-348195Y-336645D02*
X-347432Y-337454D01*
X-348953Y-335834D02*
X-348195Y-336645D01*
X-349708Y-335019D02*
X-348953Y-335834D01*
X-351207Y-333378D02*
X-349708Y-335019D01*
X-351951Y-332553D02*
X-351207Y-333378D01*
X-352691Y-331725D02*
X-351951Y-332553D01*
X-353428Y-330893D02*
X-352691Y-331725D01*
X-354160Y-330058D02*
X-353428Y-330893D01*
X-354890Y-329220D02*
X-354160Y-330058D01*
X-355616Y-328379D02*
X-354890Y-329220D01*
X-356339Y-327535D02*
X-355616Y-328379D01*
X-357058Y-326688D02*
X-356339Y-327535D01*
X-357774Y-325839D02*
X-357058Y-326688D01*
X-358486Y-324986D02*
X-357774Y-325839D01*
X-359196Y-324131D02*
X-358486Y-324986D01*
X-359901Y-323273D02*
X-359196Y-324131D01*
X-360603Y-322412D02*
X-359901Y-323273D01*
X-361301Y-321548D02*
X-360603Y-322412D01*
X-361996Y-320681D02*
X-361301Y-321548D01*
X-362686Y-319810D02*
X-361996Y-320681D01*
X-363373Y-318937D02*
X-362686Y-319810D01*
X-364055Y-318060D02*
X-363373Y-318937D01*
X-364734Y-317181D02*
X-364055Y-318060D01*
X-365409Y-316298D02*
X-364734Y-317181D01*
X-366080Y-315413D02*
X-365409Y-316298D01*
X-366747Y-314524D02*
X-366080Y-315413D01*
X-367410Y-313633D02*
X-366747Y-314524D01*
X-368070Y-312739D02*
X-367410Y-313633D01*
X-368726Y-311842D02*
X-368070Y-312739D01*
X-445050Y38330D02*
Y118830D01*
Y38330D02*
X-432750D01*
X-445050Y118830D02*
X-432750D01*
M02*
