G04*
G04 #@! TF.GenerationSoftware,Altium Limited,Altium NEXUS,1.1.6 (48)*
G04*
G04 Layer_Color=8388736*
%FSLAX44Y44*%
%MOMM*%
G71*
G01*
G75*
%ADD62R,0.6000X0.4000*%
%ADD63R,1.7000X1.3000*%
%ADD64R,3.8100X2.9200*%
%ADD65R,0.9100X1.9000*%
%ADD66R,1.1000X0.9500*%
%ADD67R,2.4000X1.5000*%
%ADD68R,0.8000X0.7500*%
%ADD69R,0.7500X0.8000*%
%ADD70O,0.8500X1.9500*%
%ADD71O,1.9500X0.8500*%
%ADD72R,1.0400X0.9900*%
G04:AMPARAMS|DCode=73|XSize=2.68mm|YSize=1.64mm|CornerRadius=0mm|HoleSize=0mm|Usage=FLASHONLY|Rotation=45.000|XOffset=0mm|YOffset=0mm|HoleType=Round|Shape=Rectangle|*
%AMROTATEDRECTD73*
4,1,4,-0.3677,-1.5274,-1.5274,-0.3677,0.3677,1.5274,1.5274,0.3677,-0.3677,-1.5274,0.0*
%
%ADD73ROTATEDRECTD73*%

%ADD74R,1.9400X1.9400*%
G04:AMPARAMS|DCode=75|XSize=2.68mm|YSize=1.64mm|CornerRadius=0mm|HoleSize=0mm|Usage=FLASHONLY|Rotation=315.000|XOffset=0mm|YOffset=0mm|HoleType=Round|Shape=Rectangle|*
%AMROTATEDRECTD75*
4,1,4,-1.5274,0.3677,-0.3677,1.5274,1.5274,-0.3677,0.3677,-1.5274,-1.5274,0.3677,0.0*
%
%ADD75ROTATEDRECTD75*%

%ADD76R,1.9400X1.9400*%
%ADD77R,3.5000X1.8000*%
%ADD78R,2.6900X2.6900*%
%ADD79O,0.3500X0.9000*%
%ADD80O,0.9000X0.3500*%
%ADD81R,1.1000X1.1000*%
%ADD82R,0.9500X1.1000*%
%ADD83R,1.4000X1.5500*%
%ADD84R,1.1000X1.2000*%
%ADD85R,8.3000X2.5000*%
%ADD86R,1.3000X1.7000*%
%ADD87C,3.0000*%
%ADD88R,1.9000X0.6000*%
%ADD89R,2.3000X2.3000*%
%ADD90R,1.8500X1.8000*%
%ADD91R,1.8500X1.5000*%
%ADD92R,1.4500X0.5000*%
%ADD93R,1.9000X1.5000*%
%ADD94R,0.7000X0.4000*%
%ADD95R,4.3000X3.3000*%
%ADD96R,1.7000X3.1000*%
%ADD97R,1.5000X1.9000*%
G04:AMPARAMS|DCode=98|XSize=1.06mm|YSize=6.65mm|CornerRadius=0.34mm|HoleSize=0mm|Usage=FLASHONLY|Rotation=0.000|XOffset=0mm|YOffset=0mm|HoleType=Round|Shape=RoundedRectangle|*
%AMROUNDEDRECTD98*
21,1,1.0600,5.9700,0,0,0.0*
21,1,0.3800,6.6500,0,0,0.0*
1,1,0.6800,0.1900,-2.9850*
1,1,0.6800,-0.1900,-2.9850*
1,1,0.6800,-0.1900,2.9850*
1,1,0.6800,0.1900,2.9850*
%
%ADD98ROUNDEDRECTD98*%
G04:AMPARAMS|DCode=99|XSize=1.06mm|YSize=6.65mm|CornerRadius=0.34mm|HoleSize=0mm|Usage=FLASHONLY|Rotation=90.000|XOffset=0mm|YOffset=0mm|HoleType=Round|Shape=RoundedRectangle|*
%AMROUNDEDRECTD99*
21,1,1.0600,5.9700,0,0,90.0*
21,1,0.3800,6.6500,0,0,90.0*
1,1,0.6800,2.9850,0.1900*
1,1,0.6800,2.9850,-0.1900*
1,1,0.6800,-2.9850,-0.1900*
1,1,0.6800,-2.9850,0.1900*
%
%ADD99ROUNDEDRECTD99*%
%ADD100C,1.1800*%
%ADD101C,0.3000*%
%ADD102C,2.3000*%
%ADD103O,1.2500X1.5500*%
%ADD104O,1.8500X1.2000*%
%ADD105C,0.8400*%
D62*
X-333000Y81871D02*
D03*
X-347000Y86871D02*
D03*
Y81871D02*
D03*
Y76871D02*
D03*
X-333000Y86871D02*
D03*
Y76871D02*
D03*
D63*
X-112800Y-141100D02*
D03*
Y-160100D02*
D03*
X-90800Y-150600D02*
D03*
X87300Y156450D02*
D03*
Y137450D02*
D03*
X109300Y146950D02*
D03*
X-90800Y-126700D02*
D03*
Y-107700D02*
D03*
X-112800Y-117200D02*
D03*
D64*
X-90400Y145600D02*
D03*
D65*
X-109450Y118600D02*
D03*
X-96750D02*
D03*
X-84050D02*
D03*
X-71350D02*
D03*
X-109450Y172600D02*
D03*
X-96750D02*
D03*
X-84050D02*
D03*
X-71350D02*
D03*
D66*
X163500Y25300D02*
D03*
Y11800D02*
D03*
Y-5250D02*
D03*
Y-18750D02*
D03*
X-75900Y17450D02*
D03*
Y3950D02*
D03*
X-115900Y26350D02*
D03*
Y39850D02*
D03*
X-129800Y26350D02*
D03*
Y39850D02*
D03*
X7050Y63050D02*
D03*
Y49550D02*
D03*
X5800Y27960D02*
D03*
Y14460D02*
D03*
D67*
X-151800Y11200D02*
D03*
Y-32800D02*
D03*
Y40400D02*
D03*
Y84400D02*
D03*
D68*
X-103100Y89300D02*
D03*
Y98800D02*
D03*
X-44500Y113750D02*
D03*
Y123250D02*
D03*
X-174100Y-74950D02*
D03*
Y-65450D02*
D03*
X-4650Y118700D02*
D03*
Y128200D02*
D03*
X-26650Y120950D02*
D03*
Y111450D02*
D03*
X-4650Y139650D02*
D03*
Y149150D02*
D03*
X-27620Y50200D02*
D03*
Y59700D02*
D03*
X-11130Y50200D02*
D03*
Y59700D02*
D03*
X-46200Y14800D02*
D03*
Y24300D02*
D03*
X-105100Y-91150D02*
D03*
Y-81650D02*
D03*
X-103100Y62550D02*
D03*
Y72050D02*
D03*
Y51100D02*
D03*
Y41600D02*
D03*
X-60350Y24320D02*
D03*
Y14820D02*
D03*
X22300Y59050D02*
D03*
Y49550D02*
D03*
X150300Y15800D02*
D03*
Y25300D02*
D03*
X156300Y60550D02*
D03*
Y51050D02*
D03*
X-84500Y-54650D02*
D03*
Y-45150D02*
D03*
X-132000Y-51250D02*
D03*
Y-60750D02*
D03*
X-105500Y-54650D02*
D03*
Y-45150D02*
D03*
X-95000D02*
D03*
Y-54650D02*
D03*
D69*
X-47250Y102800D02*
D03*
X-56750D02*
D03*
X-77150Y99500D02*
D03*
X-86650D02*
D03*
X-96950Y-26400D02*
D03*
X-106450D02*
D03*
X-97050Y-2700D02*
D03*
X-106550D02*
D03*
X-97050Y-14600D02*
D03*
X-106550D02*
D03*
X45350Y118700D02*
D03*
X35850D02*
D03*
X58850D02*
D03*
X68350D02*
D03*
X-156600Y-114800D02*
D03*
X-147100D02*
D03*
X-26900Y149450D02*
D03*
X-17400D02*
D03*
X-26760Y134070D02*
D03*
X-17260D02*
D03*
X-93750Y27400D02*
D03*
X-103250D02*
D03*
X-147100Y-102600D02*
D03*
X-156600D02*
D03*
X-104050Y-70800D02*
D03*
X-94550D02*
D03*
D70*
X62890Y87210D02*
D03*
X70890D02*
D03*
X78890D02*
D03*
X86890D02*
D03*
X94890D02*
D03*
X102890D02*
D03*
X110890D02*
D03*
X118890D02*
D03*
Y3210D02*
D03*
X110890D02*
D03*
X102890D02*
D03*
X94890D02*
D03*
X86890D02*
D03*
X78890D02*
D03*
X70890D02*
D03*
X62890D02*
D03*
D71*
X132890Y73210D02*
D03*
Y65210D02*
D03*
Y57210D02*
D03*
Y49210D02*
D03*
Y41210D02*
D03*
Y33210D02*
D03*
Y25210D02*
D03*
Y17210D02*
D03*
X48890D02*
D03*
Y25210D02*
D03*
Y33210D02*
D03*
Y41210D02*
D03*
Y49210D02*
D03*
Y57210D02*
D03*
Y65210D02*
D03*
Y73210D02*
D03*
D72*
X-248840Y5750D02*
D03*
Y-5750D02*
D03*
X-217840D02*
D03*
Y5750D02*
D03*
D73*
X123800Y-112800D02*
D03*
X57600Y-46600D02*
D03*
D74*
X129200Y-118200D02*
D03*
X52200Y-41200D02*
D03*
D75*
X57600Y-112800D02*
D03*
X123800Y-46600D02*
D03*
D76*
X52200Y-118200D02*
D03*
X129200Y-41200D02*
D03*
D77*
X-290000Y101900D02*
D03*
Y59900D02*
D03*
Y-12000D02*
D03*
Y30000D02*
D03*
D78*
X-68450Y60050D02*
D03*
D79*
X-80950Y79550D02*
D03*
X-75950D02*
D03*
X-70950D02*
D03*
X-65950D02*
D03*
X-60950D02*
D03*
X-55950D02*
D03*
Y40550D02*
D03*
X-60950D02*
D03*
X-65950D02*
D03*
X-70950D02*
D03*
X-75950D02*
D03*
X-80950D02*
D03*
D80*
X-48950Y72550D02*
D03*
Y67550D02*
D03*
Y62550D02*
D03*
Y57550D02*
D03*
Y52550D02*
D03*
Y47550D02*
D03*
X-87950D02*
D03*
Y52550D02*
D03*
Y57550D02*
D03*
Y62550D02*
D03*
Y67550D02*
D03*
Y72550D02*
D03*
D81*
X-11130Y16470D02*
D03*
Y32470D02*
D03*
X-27620Y16470D02*
D03*
Y32470D02*
D03*
D82*
X-377750Y-8000D02*
D03*
X-364250D02*
D03*
X-131750Y-38000D02*
D03*
X-118250D02*
D03*
X109300Y122000D02*
D03*
X95800D02*
D03*
X-93850Y-89900D02*
D03*
X-80350D02*
D03*
D83*
X-243840Y30000D02*
D03*
X-222840D02*
D03*
X-360580Y9780D02*
D03*
X-381580D02*
D03*
X-136200Y110000D02*
D03*
X-157200D02*
D03*
D84*
X-115800Y12100D02*
D03*
X-129800D02*
D03*
D85*
X-30000Y-47300D02*
D03*
Y-104300D02*
D03*
D86*
X18630Y132450D02*
D03*
X9130Y154450D02*
D03*
X28130D02*
D03*
X47725Y134450D02*
D03*
X66725D02*
D03*
X57225Y156450D02*
D03*
D87*
X-235890Y-353010D02*
D03*
X347400Y-264140D02*
D03*
X264140Y351400D02*
D03*
D88*
X24550Y21210D02*
D03*
Y30710D02*
D03*
Y11710D02*
D03*
D89*
X-383400Y-148930D02*
D03*
X-321900Y-38930D02*
D03*
X-383400D02*
D03*
X-321900Y-148930D02*
D03*
D90*
X-418250Y88580D02*
D03*
Y68580D02*
D03*
D91*
Y107580D02*
D03*
Y49580D02*
D03*
D92*
X-391250Y91580D02*
D03*
Y85080D02*
D03*
Y78580D02*
D03*
Y72080D02*
D03*
Y65580D02*
D03*
D93*
X-151400Y-84300D02*
D03*
Y-52300D02*
D03*
D94*
X-115900Y-71600D02*
D03*
Y-76600D02*
D03*
Y-81600D02*
D03*
X-129900D02*
D03*
Y-76600D02*
D03*
Y-71600D02*
D03*
D95*
X39200Y-79700D02*
D03*
X142200D02*
D03*
D96*
X7700Y-144600D02*
D03*
X-18300D02*
D03*
X-67500D02*
D03*
X-41500D02*
D03*
D97*
X-17000Y171300D02*
D03*
X-49000D02*
D03*
D98*
X-65950Y-279750D02*
D03*
X-78650D02*
D03*
X-91350D02*
D03*
X-104050D02*
D03*
X104050D02*
D03*
X91350D02*
D03*
X78650D02*
D03*
X65950D02*
D03*
Y279750D02*
D03*
X78650D02*
D03*
X91350D02*
D03*
X104050D02*
D03*
X-104050D02*
D03*
X-91350D02*
D03*
X-78650D02*
D03*
X-65950D02*
D03*
D99*
X279750Y-66050D02*
D03*
Y-78750D02*
D03*
Y-91450D02*
D03*
Y-104150D02*
D03*
Y104150D02*
D03*
Y91450D02*
D03*
Y78750D02*
D03*
Y66050D02*
D03*
D100*
X-295000Y-123000D02*
D03*
X47200Y-344000D02*
D03*
X345000Y-123800D02*
D03*
X-295000Y-33000D02*
D03*
X123400Y343000D02*
D03*
X72600D02*
D03*
X345000Y-73000D02*
D03*
X-72000Y-344000D02*
D03*
X98000Y343000D02*
D03*
X345000Y-98400D02*
D03*
X-97400Y-344000D02*
D03*
Y343000D02*
D03*
X345000Y97000D02*
D03*
X98000Y-344000D02*
D03*
X-72000Y343000D02*
D03*
X345000Y71600D02*
D03*
X72600Y-344000D02*
D03*
X-357000Y112500D02*
D03*
X-367000Y92000D02*
D03*
X-357000Y71500D02*
D03*
X-367000Y51000D02*
D03*
X-73000Y194100D02*
D03*
X-29800Y-174400D02*
D03*
X-119000Y-58000D02*
D03*
X222600Y9400D02*
D03*
X197200D02*
D03*
X248000D02*
D03*
X197200Y-16000D02*
D03*
X223600D02*
D03*
X248000D02*
D03*
X-37000Y80000D02*
D03*
X-179500Y-36000D02*
D03*
D101*
X-233340Y0D02*
D03*
X-383400Y-93930D02*
D03*
X-338400D02*
D03*
X-46900Y-382000D02*
D03*
X-123100D02*
D03*
X123100D02*
D03*
X46900D02*
D03*
X382000Y-47000D02*
D03*
Y-123200D02*
D03*
Y123200D02*
D03*
Y47000D02*
D03*
X46900Y382000D02*
D03*
X123100D02*
D03*
X-123100D02*
D03*
X-46900D02*
D03*
X25600Y109000D02*
D03*
X-34000Y106000D02*
D03*
X-344000Y-8000D02*
D03*
Y10000D02*
D03*
X-167200Y-85700D02*
D03*
X44000Y188750D02*
D03*
X102890Y101890D02*
D03*
X94890Y108890D02*
D03*
X119210Y65210D02*
D03*
X-200630Y-5750D02*
D03*
X-126000D02*
D03*
X-145000Y-20000D02*
D03*
X-262370Y-5750D02*
D03*
X-153000Y-13000D02*
D03*
X-88000Y2000D02*
D03*
X-46000Y36000D02*
D03*
X-103250Y19700D02*
D03*
X-88000Y11900D02*
D03*
X-357000Y85000D02*
D03*
X2000Y-201000D02*
D03*
Y-175000D02*
D03*
X36000Y140500D02*
D03*
Y130000D02*
D03*
X79000Y111000D02*
D03*
X-95000Y37000D02*
D03*
X-119000Y49000D02*
D03*
X94890Y-12000D02*
D03*
X-192000Y-57000D02*
D03*
X146790Y73210D02*
D03*
X-2800Y166900D02*
D03*
Y177300D02*
D03*
X-45000Y-68000D02*
D03*
X-63000D02*
D03*
X-65400Y154600D02*
D03*
Y136600D02*
D03*
Y145600D02*
D03*
X-115400Y154600D02*
D03*
X-106000Y-36000D02*
D03*
X-76000Y-68000D02*
D03*
Y-77000D02*
D03*
X-6000Y-122000D02*
D03*
X-22667D02*
D03*
X-39333D02*
D03*
X-56000D02*
D03*
X176000Y-5250D02*
D03*
X35000Y-60000D02*
D03*
X80000Y27000D02*
D03*
X107000D02*
D03*
X106000Y61000D02*
D03*
X80000D02*
D03*
X176000Y25300D02*
D03*
X158000Y94200D02*
D03*
X87000Y102000D02*
D03*
X67000Y72000D02*
D03*
X88000Y-33000D02*
D03*
X35000Y-45000D02*
D03*
X7000Y39000D02*
D03*
X71000Y-167000D02*
D03*
Y-153000D02*
D03*
X63000Y-144000D02*
D03*
X-37000Y14800D02*
D03*
X-60000Y5000D02*
D03*
X67000Y51000D02*
D03*
X31000Y73000D02*
D03*
X-5000Y81000D02*
D03*
X-91350Y204350D02*
D03*
X-1000Y69000D02*
D03*
X22000D02*
D03*
X-4650Y109000D02*
D03*
X-67500Y103300D02*
D03*
X-129000Y-90000D02*
D03*
X-137000D02*
D03*
X-96750Y190400D02*
D03*
X-138100Y-76600D02*
D03*
X-270000Y5750D02*
D03*
X-54000Y-258500D02*
D03*
Y-279750D02*
D03*
X-65950Y-316500D02*
D03*
X-54000Y-301000D02*
D03*
X116000Y-258500D02*
D03*
Y-279750D02*
D03*
X104050Y-316500D02*
D03*
X116000Y-301000D02*
D03*
X258500Y-54100D02*
D03*
X279750D02*
D03*
X316500Y-66050D02*
D03*
X301000Y-54100D02*
D03*
X258500Y116100D02*
D03*
X279750D02*
D03*
X316500Y104150D02*
D03*
X301000Y116100D02*
D03*
X54000Y258500D02*
D03*
Y279750D02*
D03*
X65950Y316500D02*
D03*
X54000Y301000D02*
D03*
X-116000D02*
D03*
X-104050Y316500D02*
D03*
X-116000Y279750D02*
D03*
Y258500D02*
D03*
X25400Y-144600D02*
D03*
X42600Y156200D02*
D03*
X95000Y190000D02*
D03*
X-350100Y-244300D02*
D03*
X-375500Y-193500D02*
D03*
X-350100Y162100D02*
D03*
X-375500Y212900D02*
D03*
X-350100Y263700D02*
D03*
X-324700Y-295100D02*
D03*
X-299300Y-244300D02*
D03*
X-324700Y-193500D02*
D03*
X-299300Y263700D02*
D03*
X-324700Y314500D02*
D03*
X-273900Y-295100D02*
D03*
Y-193500D02*
D03*
X-248500Y-142700D02*
D03*
X-273900Y-91900D02*
D03*
X-248500Y-41100D02*
D03*
Y162100D02*
D03*
X-273900Y314500D02*
D03*
X-248500Y365300D02*
D03*
X-197700Y-345900D02*
D03*
X-223100Y-295100D02*
D03*
Y-244300D02*
D03*
Y-193500D02*
D03*
Y-91900D02*
D03*
Y212900D02*
D03*
Y263700D02*
D03*
X-197700Y365300D02*
D03*
X-172300Y-295100D02*
D03*
X-146900Y-244300D02*
D03*
Y263700D02*
D03*
X-172300Y314500D02*
D03*
X-112400Y-193500D02*
D03*
X-121500Y212900D02*
D03*
X30900D02*
D03*
X132500Y-193500D02*
D03*
Y212900D02*
D03*
X208700Y-345900D02*
D03*
X187900Y111300D02*
D03*
X208700Y365300D02*
D03*
X259500Y-345900D02*
D03*
X234100Y-295100D02*
D03*
Y314500D02*
D03*
X284900Y-295100D02*
D03*
X310300Y-244300D02*
D03*
Y263700D02*
D03*
X284900Y314500D02*
D03*
X335700Y-295100D02*
D03*
Y-193500D02*
D03*
Y212900D02*
D03*
X361100Y263700D02*
D03*
X335700Y314500D02*
D03*
X-20000Y208500D02*
D03*
X-192000Y5750D02*
D03*
X-106700Y80800D02*
D03*
X-93100Y89300D02*
D03*
X-130000Y49000D02*
D03*
X-136300Y-117200D02*
D03*
X-115400Y136600D02*
D03*
Y145600D02*
D03*
X158000Y115400D02*
D03*
X109300Y162700D02*
D03*
X122500Y116700D02*
D03*
X135700Y115600D02*
D03*
X45000Y-3000D02*
D03*
X67000Y27000D02*
D03*
X70890Y-14000D02*
D03*
X88000Y-44500D02*
D03*
X-209500Y91100D02*
D03*
X-131100Y1500D02*
D03*
X-182035Y59065D02*
D03*
X-97900Y-163100D02*
D03*
X-112900Y-175553D02*
D03*
X78700Y-184300D02*
D03*
X-290100Y74900D02*
D03*
X-320971Y81871D02*
D03*
X-309000Y86800D02*
D03*
X40200Y6700D02*
D03*
X33800Y40800D02*
D03*
X5200Y137700D02*
D03*
X-223600Y154990D02*
D03*
X-172800Y110000D02*
D03*
X71400Y148700D02*
D03*
X79000Y121900D02*
D03*
X90600Y-132400D02*
D03*
Y-119600D02*
D03*
X97300Y-153000D02*
D03*
X62890Y-11000D02*
D03*
X-80300Y-36300D02*
D03*
X-54000Y-68000D02*
D03*
X-89900Y-138600D02*
D03*
X25400Y-133800D02*
D03*
X146900Y94200D02*
D03*
X187900Y78750D02*
D03*
X178300Y91450D02*
D03*
X197200Y-50400D02*
D03*
Y-122700D02*
D03*
X-6100Y5000D02*
D03*
D102*
X165000Y165000D02*
D03*
Y-165000D02*
D03*
X-165000D02*
D03*
Y165000D02*
D03*
X-264140Y-264140D02*
D03*
X264140D02*
D03*
Y264140D02*
D03*
X-264140D02*
D03*
D103*
X-391250Y103580D02*
D03*
Y53580D02*
D03*
D104*
X-418250Y113580D02*
D03*
Y43580D02*
D03*
D105*
X-76400Y154600D02*
D03*
Y136600D02*
D03*
X-104400D02*
D03*
Y154600D02*
D03*
X-90400D02*
D03*
Y136600D02*
D03*
X-76400Y145600D02*
D03*
X-104400D02*
D03*
X-68450Y60050D02*
D03*
X-90400Y145600D02*
D03*
M02*
