G04*
G04 #@! TF.GenerationSoftware,Altium Limited,Altium NEXUS,1.1.6 (48)*
G04*
G04 Layer_Color=255*
%FSLAX44Y44*%
%MOMM*%
G71*
G01*
G75*
%ADD110C,0.8800*%
%ADD111C,2.0000*%
%ADD112O,0.9500X1.2500*%
%ADD113O,1.5500X0.9000*%
D110*
X-295000Y-123000D02*
D03*
X47200Y-344000D02*
D03*
X345000Y-123800D02*
D03*
X-295000Y-33000D02*
D03*
X123400Y343000D02*
D03*
X72600D02*
D03*
X345000Y-73000D02*
D03*
X-72000Y-344000D02*
D03*
X98000Y343000D02*
D03*
X345000Y-98400D02*
D03*
X-97400Y-344000D02*
D03*
Y343000D02*
D03*
X345000Y97000D02*
D03*
X98000Y-344000D02*
D03*
X-72000Y343000D02*
D03*
X345000Y71600D02*
D03*
X72600Y-344000D02*
D03*
X-357000Y112500D02*
D03*
X-367000Y92000D02*
D03*
X-357000Y71500D02*
D03*
X-367000Y51000D02*
D03*
X-73000Y194100D02*
D03*
X-29800Y-174400D02*
D03*
X-119000Y-58000D02*
D03*
X222600Y9400D02*
D03*
X197200D02*
D03*
X248000D02*
D03*
X197200Y-16000D02*
D03*
X223600D02*
D03*
X248000D02*
D03*
X-37000Y80000D02*
D03*
X-179500Y-36000D02*
D03*
D111*
X165000Y165000D02*
D03*
Y-165000D02*
D03*
X-165000D02*
D03*
Y165000D02*
D03*
X-264140Y-264140D02*
D03*
X264140D02*
D03*
Y264140D02*
D03*
X-264140D02*
D03*
D112*
X-391250Y103580D02*
D03*
Y53580D02*
D03*
D113*
X-418250Y113580D02*
D03*
Y43580D02*
D03*
M02*
