M48
;Layer_Color=9474304
;FILE_FORMAT=4:4
METRIC,LZ
;TYPE=PLATED
T1F00S00C0.3000
T2F00S00C0.3000
;TYPE=NON_PLATED
T5F00S00C1.6000
T6F00S00C1.8000
T7F00S00C2.2000
T8F00S00C3.0000
T9F00S00C3.4500
%
T01
X0010405Y-003165
X00116Y-00301
Y-0027975
Y-002585
X001325Y-001935
X000973Y-00153
X000906Y-001324
Y-001196
X00088Y-000445
Y-00033
X001972Y-000504
X002585Y-000541
X0027975
X00301
X003165Y-0006605
X003357Y-001935
X003103Y-002443
X002849Y-002951
X002341
X002087Y-003459
X002595
X003357Y-002951
X001972Y-001227
X00063Y-00144
X00071Y-00153
Y-00167
X000787Y-001843
X00002Y-00175
Y-00201
X000254Y-001446
Y-001338
X-00006Y-00122
X-00022667
X-00039333
X-00056
X-000899Y-001386
X-000979Y-001631
X-001129Y-00175553
X-001124Y-001935
X-001469Y-002443
X-002231
Y-002951
X-002739
X-002993Y-002443
X-002739Y-001935
X-002231
X-002485Y-001427
X-002739Y-000919
X-002231
X-001672Y-000857
X-00137Y-0009
X-00129
X-001381Y-000766
X-001363Y-001172
X-00076Y-00077
Y-00068
X-00063
X-00054
X-00045
X-000803Y-000363
X-00106Y-00036
X-00145Y-0002
X-00192Y-00057
X-002485Y-000411
X00035Y-00045
Y-0006
X-00054Y-002585
Y-0027975
Y-00301
X-0006595Y-003165
X-001723Y-002951
X-001977Y-003459
X-003247Y-002951
X-003501Y-002443
X-003755Y-001935
X-003247
X-00344Y-00008
Y0001
X-00357Y00085
X-00320971Y00081871
X-003501Y001621
X-003755Y002129
X-003501Y002637
X-003247Y003145
X-002739
X-002993Y002637
X-002231
Y002129
X-002236Y0015499
X-002485Y001621
X-002095Y000911
X-001728Y0011
X-00182035Y00059065
X-0013Y00049
X-00119
X-00095Y00037
X-0010325Y000197
X-00088Y000119
Y00002
X-0006Y00005
X-00037Y000148
X-00046Y00036
X-0006845Y0006005
X-000675Y001033
X-000654Y001366
Y001456
Y001546
X-000764
Y001456
Y001366
X-000904
Y001456
Y001546
X-001044
Y001456
Y001366
X-001154
Y001456
Y001546
X-0009675Y001904
X-0009135Y0020435
X-001215Y002129
X-00116Y002585
Y0027975
Y00301
X-0010405Y003165
X-001723Y003145
X-001977Y003653
X-002485
X-001469Y002637
X-0002Y002085
X-000028Y001773
Y001669
X000052Y001377
X00036Y001405
Y0013
X000256Y00109
X-0000465
X-00005Y00081
X-00001Y00069
X00022
X00031Y00073
X000338Y000408
X00007Y00039
X-000061Y00005
X000402Y000067
X00045Y-00003
X0006289Y-00011
X0007089Y-00014
X00067Y00027
X0008
Y00061
X00067Y00051
Y00072
X00079Y00111
Y001219
X000714Y001487
X000426Y001562
X00044Y0018875
X000309Y002129
X00054Y002585
Y0027975
Y00301
X0006595Y003165
X-00034Y00106
X-000931Y000893
X-001067Y000808
X-001311Y000015
X-00126Y-0000575
X-00153Y-00013
X-0020063Y-0000575
X-00192Y0000575
X-0027
X-0026237Y-0000575
X-002901Y000749
X-00309Y000868
X00087Y00102
X0009489Y0010889
X0010289Y0010189
X001225Y001167
X001357Y001156
X00158Y001154
Y000942
X001469
X0014679Y0007321
X0011921Y0006521
X00106Y00061
X00107Y00027
X0009489Y-00012
X00176Y-0000525
Y000253
X001879Y0007875
X001783Y0009145
X001879Y001113
X002585Y001161
X0027975
X00301
X003165Y0010415
X003357Y002129
X003103Y002637
X003611
X003357Y003145
X002849
X002341
X002087Y003653
X001325Y002129
X00095Y0019
X001093Y001627
T02
X00098Y-00344
X00345Y-001238
X00345Y-000984
X00345Y-00073
X-000298Y-001744
X-00119Y-00058
X-001795Y-00036
X-00295Y-00033
Y-00123
X-000974Y-00344
X-00072
X000472Y-00344
X000726
X-00367Y00051
X-00357Y000715
X-00367Y00092
X-00357Y001125
X-00037Y0008
X-00073Y001941
X-00072Y00343
X-000974
X000726
X00098
X001234
X001972Y000094
X002226
X00248
Y-00016
X002236
X001972
X00345Y000716
Y00097
T05
X-003834Y-0009393
T06
X-003384Y-0009393
T07
X-0023334Y0
T08
X00165Y-00165
X0026414Y-0026414
X-00165Y-00165
X-0026414Y-0026414
X-00165Y00165
X-0026414Y0026414
X00165Y00165
X0026414Y0026414
T09
X001231Y-00382
X00382Y-001232
Y-00047
X000469Y-00382
X-000469
X-001231
X00382Y00047
Y001232
X001231Y00382
X000469
X-000469
X-001231
M30
